<svg width="32" height="32" fill="none" xmlns="http://www.w3.org/2000/svg"><path d="M4 8c-.733 0-1.333.6-1.333 1.333v17.334c0 1.466 1.2 2.666 2.666 2.666h17.334c.733 0 1.333-.6 1.333-1.333s-.6-1.333-1.333-1.333h-16c-.734 0-1.334-.6-1.334-1.334v-16C5.333 8.6 4.733 8 4 8zm22.667-5.333h-16A2.674 2.674 0 008 5.333v16C8 22.8 9.2 24 10.667 24h16c1.466 0 2.666-1.2 2.666-2.667v-16c0-1.466-1.2-2.666-2.666-2.666zm-2.667 12H13.333c-.733 0-1.333-.6-1.333-1.334C12 12.6 12.6 12 13.333 12H24c.733 0 1.333.6 1.333 1.333 0 .734-.6 1.334-1.333 1.334zM18.667 20h-5.334C12.6 20 12 19.4 12 18.667c0-.734.6-1.334 1.333-1.334h5.334c.733 0 1.333.6 1.333 1.334C20 19.4 19.4 20 18.667 20zM24 9.333H13.333C12.6 9.333 12 8.733 12 8s.6-1.333 1.333-1.333H24c.733 0 1.333.6 1.333 1.333s-.6 1.333-1.333 1.333z" fill="#444B53"/></svg>