<svg width="32" height="32" fill="none" xmlns="http://www.w3.org/2000/svg"><path fill-rule="evenodd" clip-rule="evenodd" d="M17.493 21.333c.92 0 1.534-.92 1.2-1.76L13.027 5.16a1.817 1.817 0 00-3.387 0L3.973 19.573a1.29 1.29 0 001.2 1.76 1.31 1.31 0 001.214-.84l1.173-3.16h7.52l1.2 3.174c.2.493.68.826 1.213.826zm-8.92-6.666l2.76-7.36 2.76 7.36h-5.52zm19.28 1.72L18 26.24l-3.96-3.96c-.52-.52-1.36-.52-1.88 0-.52.52-.52 1.36 0 1.88l4.907 4.907c.52.52 1.36.52 1.88 0L29.72 18.28c.52-.52.52-1.36 0-1.88a1.324 1.324 0 00-1.867-.013z" fill="#22262A"/></svg>