<svg width="248" height="180" fill="none" xmlns="http://www.w3.org/2000/svg"><g clip-path="url(#clip0)"><path opacity=".1" d="M137.461 86.818a32.227 32.227 0 00-17.06 4.857 32.371 32.371 0 00-32.367-32.128 32.286 32.286 0 00-11.281 2.023v-7.834a32.37 32.37 0 10-64.74 0v85.905H169.83v-20.454a32.367 32.367 0 00-32.369-32.369z" fill="#F78065"/><path d="M174.125 135.782s4.545-7.125 5.082-10.168a39.25 39.25 0 011.584-5.843" stroke="#535461" stroke-width="2" stroke-miterlimit="10"/><path d="M181.823 125.857l-2.85.243s1.511 2.616 2.85-.243z" fill="#F78065"/><path d="M176.832 124.276l2.272 1.818s-2.94 1.163-2.272-1.818zm5.357-.914l-2.575.345s2.27 1.846 2.575-.345zm-4.262-.914l1.7 1.193s-2.063.878-1.7-1.193zm2.332-1.086s2.111-.559 2.416-.436c.304.122.123 1.459-.73 1.52-.852.061-1.686-1.084-1.686-1.084zm-1.418-1.591s1.339 1.277 1.4 1.591c.061.314-1.095 1.034-1.704 0-.61-1.034.304-1.591.304-1.591z" fill="#F78065"/><path d="M181.336 120.501a.609.609 0 100-1.218.609.609 0 000 1.218z" fill="#FFD037"/><path d="M180.241 120.196a.609.609 0 100-1.218.609.609 0 000 1.218z" fill="#FFD037"/><path opacity=".1" d="M148.722 64.797c-2.273 2.297-2.411 5.82-2.411 5.82s3.52-.2 5.784-2.5c2.263-2.3 2.411-5.82 2.411-5.82s-3.52.204-5.784 2.5zM129.43 49.113c.802 3.125 3.743 5.068 3.743 5.068s1.643-3.12.843-6.245-3.745-5.066-3.745-5.066-1.636 3.12-.841 6.243zm41.1 29.728c-2.273 2.298-2.414 5.82-2.414 5.82s3.521-.2 5.784-2.5c2.264-2.3 2.414-5.82 2.414-5.82s-3.521.203-5.784 2.5zm9.056 19.777c-.263 3.213 1.88 6.013 1.88 6.013s2.575-2.411 2.838-5.625c.264-3.213-1.879-6.013-1.879-6.013s-2.575 2.411-2.839 5.625zm52.482-14.981c-.264 3.213 1.882 6.013 1.882 6.013s2.572-2.411 2.836-5.625c.263-3.213-1.88-6.013-1.88-6.013s-2.575 2.416-2.838 5.625z" fill="#F78065"/><path d="M14.647 137.241s100.979-19.245 212.262 0c111.283 19.244-267.555 16.292-212.262 0z" fill="#F78065"/><path d="M70.62 140.377c.179 2.3-2.064 4.038-4.21 4.882-2.145.843-4.593 1.363-6.072 3.127a2.869 2.869 0 00-.739 1.65c-.068 1.347 1.187 2.37 2.393 2.97 3.455 1.713 7.425 1.923 11.223 2.588 3.797.666 7.797 2.018 9.979 5.198 1.01 1.477 1.56 3.261 2.695 4.659 1.818 2.22 4.934 3.093 7.775 2.709 2.84-.384 5.431-1.868 7.663-3.668 2.5-2.016 4.804-4.546 7.915-5.346 5.355-1.388 10.359 2.759 15.475 4.868 6.176 2.546 13.212 2.118 19.701.521 1.454-.359 2.927-.786 4.165-1.63 1.43-.97 2.455-2.424 3.793-3.515 3.323-2.709 7.993-2.812 12.273-2.787l12.428.071c2.457.014 5.075-.018 7.13-1.364 2.106-1.381 3.22-4.013 3.086-6.529-.134-2.516-1.395-4.888-3.161-6.686-3.925-3.995-9.848-5.131-15.397-5.909-26.708-3.688-53.793-3.386-80.76-3.079-4.511.052-9.045.1-13.522.725-1.111.154-5.74.384-6.177 1.563-.411 1.109 2.236 3.612 2.343 4.982zm-31.356 21.372c5.047 0 9.138-.692 9.138-1.546 0-.853-4.091-1.545-9.138-1.545s-9.138.692-9.138 1.545c0 .854 4.091 1.546 9.138 1.546zm7.263 12.822c5.047 0 9.138-.692 9.138-1.546 0-.853-4.091-1.545-9.138-1.545s-9.138.692-9.138 1.545c0 .854 4.091 1.546 9.138 1.546zm-28.394-21.913c3.38 0 6.12-.463 6.12-1.034s-2.74-1.034-6.12-1.034-6.12.463-6.12 1.034 2.74 1.034 6.12 1.034zm49.855 13.247c3.38 0 6.12-.463 6.12-1.034s-2.74-1.034-6.12-1.034-6.12.463-6.12 1.034 2.74 1.034 6.12 1.034zm131.279-8.588c3.38 0 6.12-.463 6.12-1.034s-2.74-1.034-6.12-1.034-6.12.463-6.12 1.034 2.74 1.034 6.12 1.034zm-38.641 10.093c3.38 0 6.12-.463 6.12-1.034s-2.74-1.034-6.12-1.034-6.12.463-6.12 1.034 2.74 1.034 6.12 1.034zm64.665-5.661c5.047 0 9.138-.692 9.138-1.546 0-.853-4.091-1.545-9.138-1.545s-9.138.692-9.138 1.545c0 .854 4.091 1.546 9.138 1.546zm-36.785 9.617c8.153 0 14.761-1.117 14.761-2.495 0-1.378-6.608-2.495-14.761-2.495-8.152 0-14.76 1.117-14.76 2.495 0 1.378 6.608 2.495 14.76 2.495zm-69.826 8.632c11.392 0 20.627-1.561 20.627-3.486 0-1.926-9.235-3.487-20.627-3.487-11.391 0-20.626 1.561-20.626 3.487 0 1.925 9.235 3.486 20.626 3.486zm108.304-72.901s-4.62 4.62-2.011 11.474-4.473 18.258-4.473 18.258l.228-.036c9.488-1.675 14.203-12.529 8.926-20.59-1.97-2.997-3.581-6.513-2.67-9.106z" fill="#F78065"/><path d="M226.984 107.097s-2.607 5.663 0 10.283c2.607 4.621.455 17.586-6.484 19.449" stroke="#535461" stroke-miterlimit="10"/><path d="M235.213 125.782s-5.272-.838-5.752 3.886c-.479 4.725-10.138 5.38-10.138 5.38l.182.12c7.972 5.227 15.595 3.334 14.447-3.616-.436-2.583-.393-5.179 1.261-5.77z" fill="#F78065"/><path opacity=".2" d="M235.213 125.782s-5.272-.838-5.752 3.886c-.479 4.725-10.138 5.38-10.138 5.38l.182.12c7.972 5.227 15.595 3.334 14.447-3.616-.436-2.583-.393-5.179 1.261-5.77z" fill="#F5F5F5"/><path d="M235.213 125.782s-4.091.909-3.757 4.621c.335 3.711-6.076 8.181-12.133 4.645" stroke="#535461" stroke-miterlimit="10"/><path d="M173.15 130.38s-1.411-4.791.264-8.318a7.562 7.562 0 00.614-4.747 12.935 12.935 0 00-.682-2.23" stroke="#535461" stroke-width="2" stroke-miterlimit="10"/><path d="M174.398 112.856c0 .588-1.064 2.29-1.064 2.29s-1.063-1.702-1.063-2.29a1.064 1.064 0 112.127 0zm1.757 3.254c-.318.493-2.136 1.343-2.136 1.343s.031-2.007.352-2.5a1.061 1.061 0 011.094-.495 1.057 1.057 0 01.859.841 1.07 1.07 0 01-.169.811zm-.077 5.559c-.523.263-2.523.082-2.523.082s1.041-1.718 1.566-1.982a1.06 1.06 0 011.428.472 1.065 1.065 0 01-.471 1.428zm-1.005 4.191c-.473.35-2.464.502-2.464.502s.737-1.868 1.209-2.218a1.069 1.069 0 011.206-.089 1.076 1.076 0 01.496.671c.033.14.038.284.013.425a1.053 1.053 0 01-.451.702l-.009.007zm-3.289-8.293c.423.409 2.384.834 2.384.834s-.479-1.95-.909-2.359a1.062 1.062 0 00-1.782.784c0 .276.108.542.301.741h.006zm-1.113 4.918c.525.266 2.525.082 2.525.082s-1.043-1.716-1.566-1.98a1.068 1.068 0 00-1.195.123 1.057 1.057 0 00-.374.74 1.064 1.064 0 00.61 1.035zm-.425 4.929c.473.35 2.473.507 2.473.507s-.737-1.866-1.209-2.216a1.069 1.069 0 00-1.206-.088 1.058 1.058 0 00-.355 1.492c.077.121.178.225.297.305z" fill="#F78065"/><path d="M170.08 129.914s2.579-.516 3.266-1.202c.686-.687 3.784-1.893 4.127-1.032.343.861 4.641 3.782 1.718 4.297-2.923.516-6.877.682-7.727.344-.85-.339-1.384-2.407-1.384-2.407z" fill="#A8A8A8"/><path opacity=".2" d="M179.2 131.657c-2.923.516-6.877.682-7.727.345-.654-.263-1.109-1.52-1.288-2.106l-.087.018s.516 2.063 1.364 2.407c.847.343 4.813.172 7.727-.344.845-.15 1.086-.497.995-.94-.075.288-.364.511-.984.62z" fill="#000"/><path d="M151.224 145.334s7.825-1.566 9.913-3.653c2.089-2.086 11.477-5.74 12.52-3.131 1.043 2.609 14.09 11.479 5.227 13.042-8.863 1.564-20.869 2.089-23.478 1.043-2.609-1.045-4.182-7.301-4.182-7.301z" fill="#A8A8A8"/><path opacity=".2" d="M178.875 150.624c-8.863 1.566-20.869 2.086-23.478 1.043-1.987-.795-3.366-4.613-3.912-6.388l-.261.055s1.566 6.258 4.173 7.301c2.606 1.044 14.608.523 23.478-1.043 2.559-.454 3.291-1.511 3.016-2.854-.218.875-1.1 1.55-3.016 1.886z" fill="#000"/><path d="M20.558 114.869c3.484 5.143 2.372 23.554 2.372 23.554s-17.499-5.796-20.994-10.939a11.241 11.241 0 01-1.825-8.478 11.25 11.25 0 018.827-8.969 11.236 11.236 0 018.507 1.691 11.247 11.247 0 013.113 3.141z" fill="#F78065"/><path opacity=".1" d="M20.558 114.869c3.484 5.143 2.372 23.554 2.372 23.554s-17.499-5.796-20.994-10.939a11.241 11.241 0 01-1.825-8.478 11.25 11.25 0 018.827-8.969 11.236 11.236 0 018.507 1.691 11.247 11.247 0 013.113 3.141z" fill="#000"/><path d="M5.007 111.878s13.122 10.129 17.992 26.558" stroke="#535461" stroke-miterlimit="10"/><path d="M26.303 124.482s-9.318-1.59-2.943 13.843c0 0 6.475-2.468 6.98-8.609a4.898 4.898 0 00-3.898-5.209l-.139-.025z" fill="#F78065"/><path d="M26.44 124.464s1.777 8.536-3.08 13.863" stroke="#535461" stroke-miterlimit="10"/><path d="M219.605 124.157s1.247 1.634-.577 4.091c-1.825 2.457-3.33 4.545-2.728 6.084 0 0 2.753-4.579 5-4.643 2.248-.064.768-2.777-1.695-5.532z" fill="#F78065"/><path opacity=".1" d="M219.605 124.157c.108.159.193.332.254.514 2.187 2.568 3.35 4.966 1.25 5.025-1.959.057-4.318 3.556-4.87 4.44.019.069.042.136.068.203 0 0 2.752-4.58 5-4.643 2.248-.064.761-2.784-1.702-5.539z" fill="#000"/><path d="M221.925 126.239c0 .575-.066 1.041-.145 1.041-.08 0-.144-.455-.144-1.041 0-.586.082-.304.162-.304.079 0 .127-.271.127.304z" fill="#FFD037"/><path d="M222.721 126.925c-.505.275-.944.441-.982.371-.039-.071.341-.348.845-.623.505-.275.305-.075.343 0 .039.075.298-.023-.206.252z" fill="#FFD037"/><path d="M213.01 124.157s-1.248 1.634.575 4.091c1.822 2.457 3.329 4.545 2.727 6.084 0 0-2.755-4.579-5-4.643-2.245-.064-.768-2.777 1.698-5.532z" fill="#F78065"/><path opacity=".1" d="M213.01 124.157a2.022 2.022 0 00-.255.514c-2.186 2.568-3.352 4.966-1.25 5.025 1.957.057 4.318 3.556 4.868 4.44-.018.069-.04.136-.066.203 0 0-2.754-4.58-5-4.643-2.245-.064-.763-2.784 1.703-5.539z" fill="#000"/><path d="M210.689 126.239c0 .575.064 1.041.144 1.041.079 0 .143-.455.143-1.041 0-.586-.08-.304-.159-.304-.08 0-.128-.271-.128.304z" fill="#FFD037"/><path d="M209.892 126.925c.504.275.945.441.984.371.038-.071-.341-.348-.846-.623-.504-.275-.307-.075-.343 0-.036.075-.3-.023.205.252z" fill="#FFD037"/><path d="M211.087 134.125s3.491-.109 4.545-.857c1.055-.747 5.371-1.643 5.632-.443.261 1.2 5.245 5.975 1.304 6.007-3.94.031-9.156-.614-10.206-1.253-1.05-.638-1.275-3.454-1.275-3.454z" fill="#A8A8A8"/><path opacity=".2" d="M222.634 138.407c-3.94.031-9.156-.614-10.206-1.253-.8-.486-1.118-2.234-1.225-3.04h-.116s.227 2.813 1.271 3.454c1.043.641 6.265 1.284 10.206 1.252 1.136 0 1.532-.413 1.509-1.011-.159.37-.591.598-1.439.598z" fill="#000"/><path d="M229.068 157.678a2.64 2.64 0 00.87-1.315c.114-.523-.109-1.137-.609-1.339-.559-.214-1.154.173-1.609.566-.454.393-.97.836-1.563.754a2.384 2.384 0 00.736-2.229.944.944 0 00-.205-.455c-.311-.329-.872-.188-1.245.073-1.182.832-1.511 2.436-1.518 3.882-.118-.521-.018-1.064-.021-1.591-.002-.527-.15-1.136-.602-1.416a1.815 1.815 0 00-.909-.227c-.532-.018-1.136.034-1.486.423-.455.484-.334 1.293.057 1.818.391.525.988.863 1.538 1.231.44.263.816.621 1.1 1.048.032.06.059.122.08.186h3.331a9.241 9.241 0 002.055-1.409zm-157.304 4.721c.418-.341.722-.8.873-1.316.112-.521-.111-1.137-.609-1.339-.559-.213-1.157.175-1.609.566-.452.391-.973.839-1.566.755a2.385 2.385 0 00.737-2.23.934.934 0 00-.205-.454c-.311-.332-.873-.191-1.245.07-1.182.832-1.512 2.439-1.516 3.882-.12-.521-.02-1.064-.023-1.591-.002-.527-.15-1.136-.6-1.416a1.822 1.822 0 00-.909-.214c-.532-.02-1.123.035-1.486.423-.455.482-.334 1.291.059 1.818.393.527.988.866 1.536 1.232a3.4 3.4 0 011.1 1.048c.033.06.06.123.082.188h3.323a9.27 9.27 0 002.058-1.422z" fill="#F78065"/><path d="M49.266 141.236s-3.196-10.843.597-18.824a17.136 17.136 0 001.387-10.743 28.966 28.966 0 00-1.523-5.043" stroke="#535461" stroke-width="2" stroke-miterlimit="10"/><path d="M52.088 101.59c0 1.328-2.406 5.182-2.406 5.182s-2.407-3.864-2.407-5.182a2.407 2.407 0 014.813 0zm3.977 7.354c-.722 1.114-4.836 3.041-4.836 3.041s.073-4.545.796-5.656a2.407 2.407 0 114.04 2.615zm-.175 12.577c-1.186.598-5.71.184-5.71.184s2.358-3.881 3.544-4.481a2.413 2.413 0 011.858-.167 2.407 2.407 0 01.309 4.464zm-2.275 9.488c-1.068.789-5.597 1.137-5.597 1.137s1.668-4.225 2.727-5.016a2.408 2.408 0 013.46.429 2.41 2.41 0 01.082 2.746c-.178.273-.41.508-.68.688l.008.016zm-7.438-18.767c.952.927 5.393 1.886 5.393 1.886s-1.089-4.411-2.045-5.336a2.408 2.408 0 00-3.401.049 2.406 2.406 0 00.049 3.401h.004zm-2.52 11.129c1.186.6 5.711.186 5.711.186s-2.359-3.884-3.545-4.481a2.405 2.405 0 10-2.166 4.295zm-.964 11.154c1.06.791 5.605 1.155 5.605 1.155s-1.669-4.228-2.728-5.016a2.408 2.408 0 00-3.46.429 2.41 2.41 0 00-.082 2.746c.178.273.41.507.681.688l-.016-.002z" fill="#F78065"/><path d="M52.088 101.59c0 1.328-2.406 5.182-2.406 5.182s-2.407-3.864-2.407-5.182a2.407 2.407 0 014.813 0zm3.977 7.354c-.722 1.114-4.836 3.041-4.836 3.041s.073-4.545.796-5.656a2.407 2.407 0 114.04 2.615zm-.175 12.577c-1.186.598-5.71.184-5.71.184s2.358-3.881 3.544-4.481a2.413 2.413 0 011.858-.167 2.407 2.407 0 01.309 4.464zm-2.275 9.488c-1.068.789-5.597 1.137-5.597 1.137s1.668-4.225 2.727-5.016a2.408 2.408 0 013.46.429 2.41 2.41 0 01.082 2.746c-.178.273-.41.508-.68.688l.008.016zm-7.438-18.767c.952.927 5.393 1.886 5.393 1.886s-1.089-4.411-2.045-5.336a2.408 2.408 0 00-3.401.049 2.406 2.406 0 00.049 3.401h.004zm-2.52 11.129c1.186.6 5.711.186 5.711.186s-2.359-3.884-3.545-4.481a2.405 2.405 0 10-2.166 4.295zm-.964 11.154c1.06.791 5.605 1.155 5.605 1.155s-1.669-4.228-2.728-5.016a2.408 2.408 0 00-3.46.429 2.41 2.41 0 00-.082 2.746c.178.273.41.507.681.688l-.016-.002z" fill="#FC6681"/><path d="M41.718 140.552s3.889-.773 4.925-1.802c1.036-1.03 5.704-2.832 6.222-1.543.519 1.288 7 5.661 2.593 6.433-4.406.773-10.37 1.03-11.667.516-1.298-.513-2.073-3.604-2.073-3.604z" fill="#A8A8A8"/><path opacity=".2" d="M55.459 143.163c-4.41.771-10.37 1.03-11.668.514-.986-.391-1.673-2.273-1.943-3.152l-.13.027s.777 3.089 2.073 3.604c1.295.516 7.259.257 11.668-.515 1.27-.228 1.633-.746 1.497-1.41-.109.432-.552.766-1.498.932z" fill="#000"/><path opacity=".1" d="M244.46 17.05v44.035c0 7.3-9.011 10.811-13.901 5.391l-.116-.127c-1.577-1.766-3.736-3.914-5.909-2.973-.682.289-1.186.839-1.786 1.257a25.96 25.96 0 011.12 2.955c1.875 6.208.414 12.917-1.591 19.09-2.004 6.172-4.563 12.285-4.906 18.764-.164 3.112.193 6.225.547 9.318.682 5.877 1.38 11.868 3.837 17.249 1.345 2.955 3.247 5.923 2.845 9.134a92.89 92.89 0 01-31.31-3.977c7.013-7.061 7.004-18.265 6.536-28.206-.374-8.005-.753-16.012-1.136-24.021-.109-2.345-.241-4.773-1.311-6.863-1.453-2.848-4.48-4.634-7.598-5.348-3.118-.713-6.363-.52-9.561-.318a5.125 5.125 0 01.666-3.625 45.582 45.582 0 0015.747 3.693c.682.034 1.448.027 1.955-.434.506-.461.584-1.223.615-1.909a41.783 41.783 0 00-1.072-11.831 8.87 8.87 0 00-.525.14c-2.673.81-5.093 2.807-7.877 2.596-3.891-.295-6.198-4.654-9.863-5.993-2.809-1.027-5.898-.12-8.841.414-2.943.534-6.431.498-8.365-1.784-2.441-2.882-.909-7.452-2.5-10.884-2.248-4.886-9.052-4.977-14.393-4.318a16.933 16.933 0 019.02-6.786c-1.89-3.393-8.535-3.24-8.497-7.124.014-1.507 1.214-2.705 2.327-3.72l5-4.56-8.847-3.34c-1.982-.748-4.195-1.73-4.857-3.74-.645-1.974.527-4.092 1.986-5.571l.039-.036a12.404 12.404 0 018.795-3.593h76.685a17.045 17.045 0 0117.042 17.044z" fill="#F78065"/><path d="M70.742 151.879s5.206 1.429 7.715-.471c2.51-1.9 3.596-1.288 3.596-1.288s5.979-.332 6.47-1.743c.49-1.412-2.293-6.548-2.293-6.55-.2-.443-.487-1.034-.618-1.034l.027-2.166.866-9.059c2-5.124.036-11.749.036-11.749l-.357-1.643a4.122 4.122 0 01.339-2.727l3.636-7.307c.194-.481.421-.948.682-1.397.227-.418.53-.934.909-1.552.111-.175.227-.362.354-.555a57.68 57.68 0 011.618-2.352c1.61-2.227 2.455-5 2.891-7.068l.193.643h.085l.072.014h.014l.093.013h.036l1.116 14.213c.07 5.543 2.105 8.611 2.105 8.611l-.282 12.236c.384 2.954-.455 6.879-.839 8.445l-.882 1.986a2.4 2.4 0 00-1.295 1.805c-.175 1.466-1.718 4.625-1.718 4.625-.564.779-1.861 2.824-1.861 2.824s-.632 1.953-.246 2.684c.387.732 3.541.664 3.541.664 3.613.8 6.384-1.152 6.209-2.477-.175-1.325.559-1.673.559-1.673 1.438-.454 1.298-1.429 1.298-1.429a8.95 8.95 0 00-1.087-5.823l-.227.528a7.96 7.96 0 01.434-3.107 2.643 2.643 0 01-.134.091l-.041.027h-.014c.228-1.998 2.328-5.702 2.328-5.702 3.863-6.763 2.454-15.933 2.454-15.933l-.591-2.848-.034-1.077a35.985 35.985 0 01.57-7.677c.207-1.12.421-2.475.587-3.97.345-3.155 1.463-6.409 1.977-7.786l.154-.027h.021l.636-.112h.041s.123-.666.227-1.8c.062-.722.112-1.638.112-2.69a30.245 30.245 0 00-1.436-9.37l.113-.169s.277-.372.78-1.02a124.073 124.073 0 014.143-4.98c3.181-3.624 2.243-7.297 2.243-7.297s-2.291-8.408-3.321-13.48c-.584-2.883-1.684-4.846-2.524-6.005.19-.798.296-1.614.318-2.434.07-1.5.016-3.063-.657-4.409-.673-1.345-2.111-2.413-3.611-2.232a1.389 1.389 0 01-.648 0 .978.978 0 01-.425-.372c-.879-1.21-.936-2.837-.664-4.305.273-1.468.837-2.872 1.087-4.345.25-1.473.138-3.107-.8-4.272-1.1-1.364-3.02-1.755-4.452-2.782-1.005-.723-1.759-1.761-2.818-2.4-1.06-.639-2.046-.398-3.202-.154-1.937.406-3.775.593-5.605 1.427a14.917 14.917 0 00-4.886 3.552 4.665 4.665 0 00-1.088 1.72c-.455 1.505.434 3.11.247 4.668-.132 1.105-.784 2.068-1.302 3.055-.518.986-.909 2.158-.504 3.195.636 1.611 2.727 1.954 4.231 2.813.203.098.376.248.502.434.373.653-.39 1.33-.87 1.91a2.87 2.87 0 00-.57 1.156 4.14 4.14 0 00-2.477 2.99c-.514 2.296.274 5.194.97 7.107-.76 4.266.227 5.948.954 6.59a3.634 3.634 0 011.269 2.5v.08c.047.778.13 1.548.238 2.318-.025-.18-.05-.37-.064-.454-.595 1.102-1.727 3.913-2.365 8.636a25.972 25.972 0 01-.578 3.011 16.52 16.52 0 00-.484 5.384l.116 1.534a.455.455 0 01-.309-.102l.8 1.465v2.45a9.126 9.126 0 01-.793 3.714 2.651 2.651 0 00-.268 1.34c-1.725 2.63-5.673 17.409-5.673 17.409-2.14 4.845.175 7.983.175 7.983s1.123 13.493 1.332 14.188c.21.696.666 8.925.666 8.925v.654a1.644 1.644 0 00-.389-.113c-1.877-.105-2.386 2.859-2.386 2.859l-3.838 3.677s-1.755-.296-4.332 1.638 1.673 3.696 1.673 3.696zm38.325-77.97v-.04l-.104.061-.044.025h-.02l-1.786-6.227a10.343 10.343 0 01-.132-5.136l1.363-5.99V55.16l4.348 11.59c.289 1.552-2.293 5.336-3.625 7.159z" fill="url(#paint0_linear)"/><path d="M110.969 92.75s-1.756 4.268-2.204 8.365a54.333 54.333 0 01-.575 3.921 35.608 35.608 0 00-.559 7.581l.032 1.066.586 2.823s1.377 9.054-2.409 15.733c0 0-2.238 3.993-2.307 5.888l-1.515.584-3.064-.861s1.479-5.302.998-9.02l.275-12.084s-1.996-3.029-2.066-8.504l-1.17-14.999 13.978-.493zM96.99 90.616s-.377 5.852-3.27 9.879c-2.893 4.027-3.509 5.784-3.509 5.784l-3.566 7.215a4.122 4.122 0 00-.334 2.696l.35 1.622s1.93 6.543-.034 11.604l-.93 9.772H80.26s-.454-8.124-.654-8.813c-.2-.688-1.31-14.013-1.31-14.013s-2.272-3.097-.172-7.883c0 0 4.752-17.904 6.025-17.593 1.273.312 12.842-.27 12.842-.27z" fill="#FDC2CC"/><path opacity=".1" d="M86.112 117.812l-.35-1.622a4.108 4.108 0 01.334-2.696l3.563-7.215s.618-1.755 3.511-5.784c2.78-3.864 3.236-9.427 3.268-9.854l.553-.025s-.378 5.852-3.27 9.879c-2.894 4.027-3.51 5.784-3.51 5.784l-3.565 7.215a4.122 4.122 0 00-.335 2.696l.35 1.622s1.93 6.543-.034 11.604l-.93 9.772h-.55l.93-9.772c1.962-5.061.035-11.604.035-11.604zm16.869 20.315c.068-1.895 2.307-5.888 2.307-5.888 3.788-6.679 2.411-15.733 2.411-15.733l-.586-2.823-.034-1.066a35.74 35.74 0 01.561-7.581c.202-1.107.414-2.446.575-3.921.429-3.945 2.073-8.047 2.195-8.347l.559-.018s-1.756 4.268-2.204 8.365a54.333 54.333 0 01-.575 3.921 35.608 35.608 0 00-.559 7.581l.032 1.066.586 2.823s1.377 9.054-2.409 15.733c0 0-2.239 3.993-2.307 5.888l-1.516.584-.313-.077 1.277-.507z" fill="#000"/><path d="M101.227 138.057a2.639 2.639 0 002.522-.309 8.094 8.094 0 00-.204 4.545c.618 2.477-5.786-1.998-5.786-1.998l1.38-3.125s.504.991 2.088.887z" fill="#D39999"/><path opacity=".1" d="M101.704 138.195a2.549 2.549 0 002.034-.454 8.086 8.086 0 00-.205 4.545c.619 2.477-5.786-1.998-5.786-1.998l1.38-3.124s.398.761 1.563.879c.332.041.678.089 1.014.152z" fill="#000"/><path d="M86.698 80.135h2.675V64.954l-2.007-.362-.668 15.543z" fill="#FDC2CC"/><path opacity=".05" d="M86.698 80.135h2.675V64.954l-2.007-.362-.668 15.543z" fill="#000"/><path d="M99.71 139.227s1.687-.102 2.446 1.411l.93.725.454-1.068a8.876 8.876 0 011.066 5.75s.139.964-1.273 1.411c0 0-.722.346-.552 1.652.171 1.307-2.548 3.237-6.093 2.446 0 0-3.1.068-3.477-.655-.377-.722.241-2.652.241-2.652s1.273-2.018 1.859-2.766c0 0 1.514-3.12 1.686-4.565.173-1.446 1.818-2.48 2.714-1.689z" fill="#7E5659"/><path d="M85.75 140.502l.028-2.139s-3.08.882-5.573-.115c0 0 .21 2.149-.136 2.443-.346.293 1.154 3.063 1.154 3.063l1.675 1.757 2.88-1.05.781-2.461s-.602-1.498-.809-1.498z" fill="#D39999"/><path opacity=".1" d="M85.75 140.502l.028-2.139s-3.08.882-5.573-.115c0 0 .21 2.149-.136 2.443-.346.293 1.154 3.063 1.154 3.063l1.675 1.757 2.88-1.05.781-2.461s-.602-1.498-.809-1.498z" fill="#000"/><path d="M79.887 139.727s1.636.189 1.43 2.273c-.207 2.084.086 0 .086 0s1.738.704 2.356 1.686c.619.982 1.739-.877 1.819-1.411.079-.534.779-.753.779-.753s2.727 5.073 2.25 6.468c-.477 1.396-6.352 1.721-6.352 1.721s-1.066-.603-3.53 1.275c-2.463 1.877-7.572.454-7.572.454s-4.166-1.738-1.636-3.636c2.53-1.898 4.252-1.62 4.252-1.62l3.77-3.637s.498-2.922 2.348-2.82z" fill="#7E5659"/><path d="M99.431 19.838c1.041.63 1.782 1.656 2.768 2.368 1.405 1.016 3.289 1.393 4.371 2.747.909 1.152 1.029 2.766.784 4.22-.246 1.455-.798 2.841-1.066 4.291-.268 1.45-.212 3.057.652 4.25a.94.94 0 00.416.368c.209.05.427.05.636 0 1.473-.177 2.884.875 3.546 2.205.661 1.33.713 2.872.645 4.354-.057 1.216-.193 2.457-.727 3.55-.909 1.859-2.807 3.009-4.68 3.888a36.072 36.072 0 01-3.736 1.51c-.872.297-1.797.563-2.706.406-1.557-.268-2.66-1.682-4.137-2.238-1.21-.455-2.554-.291-3.843-.178-1.097.096-2.354.096-3.108-.707-.97-1.031-.535-2.693-.04-4.017a2.864 2.864 0 01-2.022-4.678c.47-.572 1.218-1.24.852-1.886a1.268 1.268 0 00-.49-.43c-1.487-.847-3.53-1.186-4.155-2.776-.402-1.026-.011-2.182.496-3.157.506-.975 1.147-1.925 1.277-3.016.184-1.54-.682-3.125-.243-4.611a4.623 4.623 0 011.068-1.698 14.699 14.699 0 014.797-3.509c1.798-.822 3.602-1.006 5.502-1.409 1.123-.24 2.066-.497 3.143.153z" fill="#865A61"/><path d="M89.37 42.782s-4.36-.227-5.186 3.488c-.825 3.716 1.789 9.043 1.789 9.043l3.398-12.531z" fill="#FDC2CC"/><path opacity=".05" d="M89.37 42.782s-4.36-.227-5.186 3.488c-.825 3.716 1.789 9.043 1.789 9.043l3.398-12.531z" fill="#000"/><path d="M86.593 53.845l1.652 1.309 7.714.343 4.811-3.304 4.897-8.409c-2.995-.763-4.204-2.83-4.654-4.772a10.429 10.429 0 01-.098-3.98s-7.85-4.063-6.886 2.273c.134.778.159 1.572.073 2.357-.455 3.713-4.061 3.015-4.061 3.015l-1.382 2.134-1.59 5.227-.476 3.807z" fill="#FDC2CC"/><path opacity=".1" d="M94.03 37.319a8.46 8.46 0 01.072 2.356 6.961 6.961 0 006.92-.647 10.449 10.449 0 01-.098-3.98s-7.856-4.063-6.895 2.27z" fill="#000"/><path d="M96.997 40.028a6.955 6.955 0 100-13.91 6.955 6.955 0 000 13.91z" fill="#FDC2CC"/><path d="M92.08 52.518c.165.011.333.027.5.043.908.09 4.72.295 6.89-2.295 2.427-2.9 5.659-6.482 5.79-6.627l3.289.995s-2.602-.927-4.336 3.914a5.027 5.027 0 001.704 5.772 5.226 5.226 0 002.15.909.012.012 0 01.002.006.012.012 0 01-.002.005v2.125l-1.345 5.91a10.276 10.276 0 00.127 5.072l2.045 7.25v.01c-.309.214-13.038 8.864-21.54 2.894.032-.26 1.082-8.768.355-12.932a28.843 28.843 0 01-.382-3.218v-.08a3.636 3.636 0 00-1.245-2.46c-.766-.682-1.804-2.5-.78-7.327a17.77 17.77 0 011.137-3.47l2.85-6.443a.011.011 0 01.01 0l2.628.052v.016c-.227.284-3.275 4.09-3.604 6.543-.325 2.334-.723 3.05 3.756 3.336z" fill="#D39999"/><path d="M110.762 45.766s2.571 2.204 3.58 7.206c1.009 5.002 3.27 13.313 3.27 13.313s.909 3.636-2.204 7.207c-3.114 3.57-5.186 6.381-5.186 6.381l-2.046 3.02a2.563 2.563 0 01-1.477 1.044c-.936.247-2.37.425-3.616-.257a2.108 2.108 0 01-.92-2.66l.443-1.056s-4.222 2.664-4.588 1.193c-.366-1.47 4.911-2.936 4.911-2.936s4.361-.734 5.227-2.8c0 0 4.681-6.013 4.318-8.079L107.94 55.23s-5.627-.745-3.698-7.097c1.93-6.352 6.52-2.366 6.52-2.366z" fill="#FDC2CC"/><path d="M83.725 91.486s10.33 2.066 12.761 1.791l.261.873s3.923.877 12.784-.53c.579-.09 1.18-.193 1.804-.306l.207-.037s.123-.657.227-1.777c.214-2.54.289-7.461-1.5-12.5l-1.493-4.59s-9.21 5.522-15.31 5.013a35.505 35.505 0 00-1.63-.109c-1.252-.045-3.181 0-4.45-1.009l-2.645.455v7.536a9.047 9.047 0 01-.598 3.218c-.056.15-.115.297-.181.454-.225.486-.369 1.032-.237 1.518z" fill="#7E5659"/><path opacity=".1" d="M96.748 91.818v2.34s4.513 1.01 14.794-.872c0 0 .123-.657.228-1.777-3.166.498-11.866 1.716-15.022.31zm-13.023-.332s10.33 2.066 12.761 1.791l.261.873v-2.332c-1.174.486-9.574-1.536-12.615-2.295-.057.15-.116.297-.181.454-.214.477-.357 1.023-.225 1.51z" fill="#000"/><path d="M108.765 88.864l.766 4.75c.579-.092 1.18-.194 1.804-.307-.227-1.389-.761-4.546-.618-5.087l-.964-.824-.988 1.468z" fill="#7E5659"/><path opacity=".1" d="M108.765 88.864l.766 4.75c.579-.092 1.18-.194 1.804-.307-.227-1.389-.761-4.546-.618-5.087l-.964-.824-.988 1.468z" fill="#000"/><path opacity=".05" d="M92.902 79.423a35.424 35.424 0 00-1.63-.109c-1.215-.043-3.074 0-4.34-.932l.443-.077c1.266 1.007 3.198.964 4.45 1.01.543.02 1.086.063 1.63.108.177.016.358.025.542.03-.365.01-.73 0-1.095-.03zm16.074 14.197c.581-.09 1.182-.193 1.805-.306l.207-.037s.12-.657.227-1.777c.213-2.54.288-7.461-1.502-12.5l-1.405-4.317c.3-.169.455-.269.455-.269l1.493 4.591c1.788 5.038 1.713 9.959 1.5 12.5-.093 1.12-.228 1.777-.228 1.777l-.206.036c-.623.114-1.225.216-1.805.307-4.138.657-7.199.816-9.288.797a58.202 58.202 0 008.747-.802zm-13.042-.343v.025h-.298c.116-.009.211-.016.298-.025z" fill="#000"/><path d="M110.051 89.764c.215 0 .389-.36.389-.803 0-.443-.174-.802-.389-.802-.214 0-.388.36-.388.802 0 .444.174.803.388.803z" fill="#D39999"/><path d="M85.175 72.715c.628-4.673 1.739-7.45 2.323-8.536.025.15.084.63.109.78.12.68.016 1.542.052 2.41l-.584 10.586.782 3.305c.734 2.615-1.986.55-1.986.55-.564 1.24-1.591 1.102-1.591 1.102l-.141-1.896a16.363 16.363 0 01.475-5.318c.245-.982.433-1.979.561-2.983z" fill="#FDC2CC"/><path opacity=".05" d="M85.175 72.715c.628-4.673 1.739-7.45 2.323-8.536.025.15.084.63.109.78.12.68.016 1.542.052 2.41l-.584 10.586.782 3.305c.734 2.615-1.986.55-1.986.55-.564 1.24-1.591 1.102-1.591 1.102l-.141-1.896a16.363 16.363 0 01.475-5.318c.245-.982.433-1.979.561-2.983z" fill="#000"/><path d="M111.335 78.41c-.495.638-.766 1.006-.766 1.006l-2.045 3.02a2.563 2.563 0 01-1.475 1.044c-.936.248-2.373.425-3.616-.257a2.1 2.1 0 01-.92-2.659l.454-1.057s-4.222 2.664-4.59 1.196c-.368-1.468 4.911-2.939 4.911-2.939s4.361-.734 5.227-2.8c0 0 .382-.49.909-1.238" fill="#FDC2CC"/><path d="M108.765 83.478s-5-.484-6.575-3.341l-.713 2.35s5.227 3.618 6.438 3.15l.85-2.16z" fill="#7E5659"/><path opacity=".1" d="M108.765 83.478s-5-.484-6.575-3.341l-.713 2.35s5.227 3.618 6.438 3.15l.85-2.16z" fill="#000"/><path d="M86.034 82.146s-1.747.618-2.09.275l.786 1.445 1.484-1.136-.18-.584z" fill="#7E5659"/><path opacity=".1" d="M86.034 82.146s-1.747.618-2.09.275l.786 1.445 1.484-1.136-.18-.584zm10.713 9.663v-3.02l-.718 3.093.718-.073zm7.082-62.406c-.42.59-1.152.893-1.873.986-.72.094-1.45.014-2.177 0-1.136-.02-2.35.155-3.284.825-.595.428-1.04 1.025-1.507 1.591-1.409 1.723-3.365 3.332-5.583 3.152a1.442 1.442 0 01-1.037-.438 1.643 1.643 0 01-.265-.941 21.64 21.64 0 01.134-4.255 8.901 8.901 0 01.645-2.536 8.58 8.58 0 011.543-2.206 9.452 9.452 0 012.698-2.162c1.038-.516 2.254-.738 3.372-.434 1.328.361 2.364 1.4 3.636 1.937 1.444.615 5.287 2.24 3.698 4.481z" fill="#000"/><path d="M103.829 29.126c-.42.593-1.152.893-1.873.988-.72.096-1.45.014-2.177 0-1.136-.018-2.35.157-3.284.825-.595.43-1.04 1.028-1.507 1.591-1.409 1.72-3.365 3.332-5.583 3.152a1.441 1.441 0 01-1.037-.438 1.645 1.645 0 01-.265-.944 21.625 21.625 0 01.134-4.251 8.9 8.9 0 01.645-2.537 8.575 8.575 0 011.543-2.207 9.454 9.454 0 012.698-2.16c1.038-.517 2.254-.74 3.372-.435 1.327.362 2.364 1.4 3.636 1.936 1.444.614 5.287 2.241 3.698 4.48z" fill="#865A61"/><path d="M87.375 78.305l-.018.832-.187-.796.205-.036z" fill="#FDC2CC"/><path opacity=".05" d="M87.375 78.305l-.018.832-.187-.796.205-.036zm17.576-30.617c-1.929 6.352 3.698 7.098 3.698 7.098l4.522 12.12c.366 2.066-4.317 8.079-4.317 8.079-.325.772-1.137 1.363-2.03 1.788a3.16 3.16 0 001.205-1.32s4.681-6.013 4.318-8.08l-4.521-12.119s-5.627-.745-3.697-7.097c.645-2.123 1.591-3.089 2.556-3.436-.663.534-1.275 1.456-1.734 2.968z" fill="#000"/><g opacity=".1" fill="#000"><path opacity=".1" d="M105.045 53.461c.263.327.569.617.909.864a5.195 5.195 0 002.15.909v.227a5.193 5.193 0 01-1.953-.866 4.777 4.777 0 01-1.106-1.134zm-17.481 9.086v.08c.066 1.078.193 2.153.382 3.217.681 3.93-.212 11.732-.341 12.811a8.167 8.167 0 00-.228-.145c.032-.26 1.082-8.768.355-12.931a28.893 28.893 0 01-.382-3.218v-.08a3.516 3.516 0 00-.611-1.743 3.57 3.57 0 01.825 2.009zm4.195-19.665l-2.23-.043a.012.012 0 00-.005-.002c-.002 0-.004 0-.006.002l-2.85 6.443a17.691 17.691 0 00-1.136 3.47c-.83 3.897-.309 5.838.325 6.797-.714-.84-1.45-2.759-.532-7.072a17.82 17.82 0 011.137-3.473l2.85-6.44 2.627.05v.018c-.007.034-.08.12-.18.25z"/><path opacity=".1" d="M107.738 44.596l-2.225-.682c-.132.147-3.364 3.727-5.79 6.627-2.171 2.59-5.975 2.388-6.891 2.297a12.393 12.393 0 00-.5-.043c-2.5-.159-3.473-.455-3.8-1.084.468.455 1.495.682 3.593.81.166.01.334.024.5.04.909.093 4.72.295 6.89-2.295 2.428-2.9 5.659-6.48 5.791-6.627l3.25.984a2.006 2.006 0 00-.818-.027z"/></g><path opacity=".1" d="M81.291 143.04s-3.145.859-3.752-.49l3.752.49zm19.97-.645s-3.657.941-4.491-.516l4.491.516z" fill="#000"/><path d="M147.656 126.339s-.454-1.818-.856-3.611c-.085-1.123-.282-2.579-.366-3.182v-.072a.971.971 0 00-.257-.66c.227-.654 1.052-3.145.898-3.863-.178-.827-.814-2.845-1.569-3.511a2.013 2.013 0 00-.993-.784 2.621 2.621 0 00-2.209.177l-3.836 2.152a435.373 435.373 0 00-2.786-.402s-.952-.114-2.143-.227c-.371-.882-1.591-3.548-2.857-3.971-1.363-.454-2.954.162-3.302.305h-.018l-.046.018c-2.499 1.157-2.209 6.054-2.113 7.125a17.825 17.825 0 01-1.505 1.675c-.856.754-1.122 2.727-.325 3.134.378.193.909.422 1.382.611-2.163 4.602-5.825 13.649-2.545 16.22 4.459 3.493 12.813 4.654 15.681 3.493a.46.46 0 00.227-.016s4.648-1.107 5.734-2.346a8.038 8.038 0 001.625-3.499 6.81 6.81 0 002.182-3.816c.57-2.859-.003-4.95-.003-4.95zm-2.906-9.922l.111-.55.184.102a8.053 8.053 0 01-.102.471l-.173 1.059-.02-1.082zm-.875-4.577c.197.132 1.509 1.107 1.247 3.595a1.205 1.205 0 00-.072-.282c-.057-.356-.314-.841-1.2-1.136a19.579 19.579 0 00-2.318-.516 7.66 7.66 0 012.343-1.661zm-13.034.259c-1.004-.077-1.795-.109-1.904-.032h-.016a.918.918 0 00-.382.048 2.918 2.918 0 00-1.079.504c.454-2.543 1.781-2.756 2.07-2.772a7.036 7.036 0 011.311 2.252zm14.44 20.172c-.138-2.078-.265-5.323-.334-7.214l.116-.018c.131-.017.26-.043.387-.077.127 1.223.354 2.675.747 3.618.505 1.218-.284 2.75-.916 3.691z" fill="url(#paint1_linear)"/><path d="M144.429 115.285l-2.591-.804-2.793 1.006-.2 1.755 1.38.893 2.188-.073 1.93-.907.329-1.668-.243-.202z" fill="#CD939C"/><path opacity=".2" d="M144.429 115.285l-2.591-.804-2.793 1.006-.2 1.755 1.38.893 2.188-.073 1.93-.907.329-1.668-.243-.202z" fill="#000"/><path d="M125.473 116.149s-.707-6.068 2.096-7.295c0 0 1.497.075 2.149 1.15 0 0-2.045-.114-2.211 4.145l-2.034 2z" fill="#F6C6CD"/><path opacity=".1" d="M125.473 116.149s-.707-6.068 2.096-7.295c0 0 1.497.075 2.149 1.15 0 0-2.045-.114-2.211 4.145l-2.034 2z" fill="#000"/><path d="M126.985 113.976s-2.159 2.879-2.996 3.636c-.836.757-1.093 2.707-.316 3.109.778.402 2.273.98 2.273.98l1.039-7.725z" fill="#CD939C"/><path opacity=".05" d="M126.985 113.976s-2.159 2.879-2.996 3.636c-.836.757-1.093 2.707-.316 3.109.778.402 2.273.98 2.273.98l1.039-7.725z" fill="#000"/><path d="M133.675 112.767s-1.409-3.713-2.891-4.216c-1.482-.502-3.277.33-3.277.33s2.182-.227 3.52 3.597l2.648.289zm12.129 6.291s1.098-3.168.925-3.989c-.173-.82-.791-2.82-1.525-3.481-.734-.662-1.611.372-1.611.372s1.886 1.137 1.066 4.577l-.246 1.527 1.391.994z" fill="#F6C6CD"/><path opacity=".1" d="M145.804 119.058s1.098-3.168.925-3.989c-.173-.82-.791-2.82-1.525-3.481-.734-.662-1.611.372-1.611.372s1.886 1.137 1.066 4.577l-.246 1.527 1.391.994z" fill="#000"/><path d="M137.793 113.444l4.295-2.456a2.494 2.494 0 012.15-.175c.397.147.736.419.966.775 0 0-2.073-.116-4.375 2.59l-3.036-.734zm7.2 9.341s.115 3.913.884 5.795c.768 1.882-1.537 4.529-1.537 4.529l.423 2.273s1.977-1.266 2.534-4.107c.557-2.841 0-4.911 0-4.911s-1.591-6.381-1.364-7.063c.228-.682-.94 3.484-.94 3.484z" fill="#F6C6CD"/><path opacity=".1" d="M144.993 122.785s.115 3.913.884 5.795c.768 1.882-1.537 4.529-1.537 4.529l.423 2.273s1.977-1.266 2.534-4.107c.557-2.841 0-4.911 0-4.911s-1.591-6.381-1.364-7.063c.228-.682-.94 3.484-.94 3.484z" fill="#000"/><path d="M144.456 115.908s.346 1.995-3.722 1.113l-2.727 23.817s4.52-1.097 5.577-2.325c1.056-1.227 1.84-3.57 1.59-4.413-.25-.843-.566-10.515-.566-10.515l-.152-7.677z" fill="#CD939C"/><path d="M126.341 118.61s-8.138 15.324-3.799 18.788c4.338 3.463 12.462 4.615 15.251 3.463 0 0 1.291.346 1.098-3.684-.194-4.029 1.497-15.276 1.497-15.276l-14.047-3.291z" fill="#CD939C"/><path d="M126.612 119.294s-7.636 14.402-3.573 17.656c4.064 3.254 11.716 4.336 14.334 3.254 0 0 1.213.325 1.031-3.463-.181-3.789 1.407-14.354 1.407-14.354l-13.199-3.093z" fill="#F6C6CD"/><path opacity=".1" d="M144.284 125.225c-.314.228-2.103-.318-2.103-.318-1.934-.134-1.245-3.465-.895-4.79.089-.33.155-.534.155-.534.909 1.152 2.527.661 2.527.661s.047.37.111.909c.166 1.4.43 3.916.205 4.072z" fill="#000"/><path d="M144.34 125.116c-.311.228-2.099-.315-2.099-.315-1.937-.137-1.248-3.468-.896-4.791.086-.33.152-.536.152-.536.909 1.154 2.528.663 2.528.663l.113.909c.164 1.391.427 3.907.202 4.07z" fill="#F6C6CD"/><path opacity=".05" d="M144.34 125.198c-.311.227-2.099-.316-2.099-.316-1.937-.136-1.248-3.465-.896-4.79.086-.33.152-.534.152-.534.909 1.152 2.528.661 2.528.661l.113.909c.164 1.393.427 3.907.202 4.07z" fill="#000"/><path opacity=".1" d="M144.138 121.046c-.882-.111-2.234-.754-2.793-1.036.087-.33.152-.536.152-.536.91 1.154 2.528.663 2.528.663l.113.909z" fill="#000"/><path d="M143.277 119.998s-2.198 5.727 1.495 5.066c0 0 1.737-.182 1.727-1.498-.009-1.315-.431-4.211-.431-4.211l-2.791.643z" fill="#F6C6CD"/><path opacity=".1" d="M141.636 118.569s-1.118 4.638 2.461 2.918c3.58-1.72 1.289-2.918 1.289-2.918l-1.709-1.116-2.041 1.116z" fill="#000"/><path d="M141.636 118.512s-1.118 4.636 2.461 2.916c3.58-1.72 1.289-2.916 1.289-2.916l-1.709-1.116-2.041 1.116z" fill="#CD939C"/><path opacity=".1" d="M142.32 117.865s-1.025.272-.5 1.286c.24.458.353.972.33 1.488a.68.68 0 00.561.723c.368.066.893-.025 1.557-.604 0 0 1.322-.494 1.22-1.137-.102-.643-2.273-2.088-2.273-2.088l-.895.332z" fill="#000"/><path d="M142.32 117.805s-1.025.275-.5 1.289c.24.458.353.972.33 1.489a.679.679 0 00.561.722c.368.064.893-.027 1.557-.604 0 0 1.322-.496 1.22-1.137-.102-.64-2.273-2.088-2.273-2.088l-.895.329z" fill="#F6C6CD"/><path opacity=".1" d="M143.7 120.13a.675.675 0 100-1.35.675.675 0 000 1.35z" fill="#000"/><path d="M143.7 120.073a.675.675 0 100-1.35.675.675 0 000 1.35z" fill="#CD939C"/><path opacity=".1" d="M135.45 112.917s-6.425-.795-6.752-.55c0 0-3.409.582-3.409 6.943 0 0-.07 3.654 6.959 5.413 0 0 5.64.496 7.481-1.741 1.841-2.236.928-5.997.928-5.997s.734-2.875 4.142-.886c0 0 .357-1.137-1.181-1.682-1.539-.545-8.168-1.5-8.168-1.5z" fill="#000"/><path d="M135.45 112.803s-6.425-.795-6.752-.552c0 0-3.409.582-3.409 6.943 0 0-.07 3.657 6.959 5.416 0 0 5.64.495 7.481-1.741 1.841-2.236.928-5.998.928-5.998s.734-2.874 4.142-.888c0 0 .357-1.137-1.181-1.682-1.539-.545-8.168-1.498-8.168-1.498z" fill="#CD939C"/><path opacity=".1" d="M135.648 112.824s-6.245-.748-6.564-.518c0 0-3.309.547-3.309 6.536 0 0-.068 3.438 6.764 5.095 0 0 5.484.454 7.272-1.639 1.789-2.093.909-5.645.909-5.645s.714-2.706 4.027-.834c0 0 .35-1.066-1.136-1.591-1.486-.525-7.963-1.404-7.963-1.404z" fill="#000"/><path d="M135.648 112.767s-6.245-.748-6.564-.518c0 0-3.309.548-3.309 6.534 0 0-.068 3.44 6.764 5.095 0 0 5.484.454 7.272-1.639 1.789-2.093.909-5.643.909-5.643s.714-2.706 4.027-.836c0 0 .35-1.064-1.136-1.591-1.486-.527-7.963-1.402-7.963-1.402z" fill="#F6C6CD"/><path d="M132.509 122.61s-1.697-.775-1.784.682c0 0-.575 1.468-.604 1.64-.03.173.086 1.668 1.411 1.612a2.051 2.051 0 001.784-1.091s.289-1.609.682-1.955c.393-.345-.289-.681-.548-.681a5.604 5.604 0 01-.941-.207z" fill="#CD939C"/><path opacity=".1" d="M132.28 122.38s-1.698-.775-1.784.682c0 0-.575 1.468-.605 1.641-.029.173.087 1.668 1.411 1.611a2.043 2.043 0 001.785-1.095s.286-1.612.681-1.957c.396-.345-.288-.682-.547-.682a5.49 5.49 0 01-.941-.2z" fill="#000"/><path d="M132.337 122.323s-1.698-.777-1.784.682c0 0-.575 1.468-.605 1.641-.029.173.086 1.67 1.411 1.614a2.049 2.049 0 001.784-1.098s.289-1.609.682-1.955c.393-.345-.288-.681-.548-.681a5.605 5.605 0 01-.94-.203z" fill="#F6C6CD"/><path opacity=".1" d="M131.489 125.794a.616.616 0 100-1.233.616.616 0 000 1.233z" fill="#000"/><path d="M131.489 125.737a.616.616 0 100-1.233.616.616 0 000 1.233zm5.756 2.747s-6.692-.779-11.363-3.181c0 0-3.684 9.286-.747 10.586 2.936 1.3 9.038 3.379 10.749 2.661 0 0 1.023.168.682-3.211-.341-3.38.679-6.855.679-6.855z" fill="#CD939C"/><path opacity=".1" d="M136.843 129.146s-6.693-.734-11.363-2.993c0 0-3.686 8.736-.75 9.958 2.936 1.223 9.038 3.182 10.752 2.5 0 0 1.023.159.682-3.022-.341-3.182.679-6.443.679-6.443z" fill="#000"/><path d="M136.957 129.089s-6.691-.734-11.363-2.993c0 0-3.684 8.736-.748 9.959 2.936 1.222 9.038 3.181 10.752 2.499 0 0 1.02.159.682-3.022-.339-3.182.677-6.443.677-6.443z" fill="#F6C6CD"/><path opacity=".1" d="M143.593 114.131c-1.498-.519-7.954-1.409-7.954-1.409s-6.246-.75-6.564-.519c0 0-1.613.266-2.586 2.466.98-1.975 2.473-2.222 2.473-2.222.316-.228 6.563.518 6.563.518s6.447.893 7.954 1.411c1.005.348 1.177.941 1.182 1.295l.079.044s.35-1.066-1.147-1.584zm-2.823 2.256a1.958 1.958 0 00-.17.407s.634 2.523-.262 4.586c1.053-2.091.366-4.831.366-4.831s.028-.062.066-.162z" fill="#000"/></g><defs><linearGradient id="paint0_linear" x1="93.213" y1="152.395" x2="93.213" y2="18.192" gradientUnits="userSpaceOnUse"><stop stop-color="gray" stop-opacity=".25"/><stop offset=".54" stop-color="gray" stop-opacity=".12"/><stop offset="1" stop-color="gray" stop-opacity=".1"/></linearGradient><linearGradient id="paint1_linear" x1="17593.5" y1="22544.9" x2="17593.5" y2="17699.3" gradientUnits="userSpaceOnUse"><stop stop-color="gray" stop-opacity=".25"/><stop offset=".54" stop-color="gray" stop-opacity=".12"/><stop offset="1" stop-color="gray" stop-opacity=".1"/></linearGradient><clipPath id="clip0"><path fill="#fff" d="M0 0h247.499v180H0z"/></clipPath></defs></svg>