<svg width="223" height="180" fill="none" xmlns="http://www.w3.org/2000/svg"><g clip-path="url(#clip0)"><path d="M38.722 122.274h-.708a.352.352 0 01-.355-.354v-.709a.355.355 0 01.354-.354h.71a.355.355 0 01.354.354v.709a.353.353 0 01-.355.354z" fill="#CCC"/><path d="M38.382 121.493a.273.273 0 01-.04-.003.236.236 0 01-.193-.273l2.336-13.595a.233.233 0 01.097-.151.234.234 0 01.328.056c.036.051.05.114.04.175l-2.336 13.595a.235.235 0 01-.232.196z" fill="#CCC"/><path d="M38.381 121.493a.235.235 0 01-.233-.196l-2.336-13.595a.236.236 0 01.466-.08l2.336 13.595a.234.234 0 01-.04.176.25.25 0 01-.067.064.263.263 0 01-.086.033.271.271 0 01-.04.003z" fill="#CCC"/><path d="M43.41 105.295c.228-1.613-.633-3.068-1.924-3.251-1.29-.182-2.521.978-2.75 2.592-.191 1.36.393 2.605 1.355 3.072l-.055.388 1.168.165.055-.388c1.053-.182 1.96-1.217 2.152-2.578z" fill="#FF6584"/><path d="M37.985 104.561c-.28-1.605-1.547-2.725-2.831-2.501-1.284.224-2.099 1.706-1.819 3.311.236 1.354 1.175 2.359 2.233 2.507l.068.386 1.162-.202-.067-.386c.946-.498 1.49-1.761 1.254-3.115zm.383 16.65a.237.237 0 01-.236-.236V107a.236.236 0 11.472 0v13.975a.237.237 0 01-.236.236z" fill="#CCC"/><path d="M40.582 104.315c0-1.629-1.057-2.95-2.36-2.95-1.304 0-2.36 1.321-2.36 2.95 0 1.374.752 2.526 1.77 2.854v.391h1.18v-.391c1.017-.328 1.77-1.48 1.77-2.854z" fill="#F78065"/><path d="M148.376 180l-.047-.005-73.886-6.863-67.186 6.241A6.643 6.643 0 010 172.759V12.969a6.613 6.613 0 016.028-6.613L74.444 0l.047.004 73.885 6.864L215.562.627a6.648 6.648 0 015.089 1.704 6.638 6.638 0 012.168 4.91V167.03a6.613 6.613 0 01-6.028 6.614L148.376 180zm-73.933-7.894l.048.004 73.885 6.864 68.321-6.347a5.597 5.597 0 005.1-5.597V7.24a5.619 5.619 0 00-6.14-5.596l-67.281 6.25-.047-.004-73.886-6.864-68.32 6.347-.048-.509.048.509a5.596 5.596 0 00-5.101 5.597v159.789a5.625 5.625 0 003.835 5.33 5.633 5.633 0 002.305.267l67.281-6.25z" fill="#E6E6E6"/><path d="M212.888 40.895c0-4.543-3.686-15.326-8.233-15.326-4.547 0-8.233 10.783-8.233 15.326a8.23 8.23 0 008.233 8.228 8.233 8.233 0 008.233-8.227z" fill="#3F3D56"/><path d="M204.655 59.127a.096.096 0 01-.067-.028.097.097 0 01-.027-.067V39.813c0-.025.01-.048.028-.066a.092.092 0 01.066-.027c.025 0 .049.01.066.027a.092.092 0 01.028.066v19.22a.09.09 0 01-.007.035.112.112 0 01-.02.03.094.094 0 01-.067.028z" fill="#CCC"/><path d="M204.655 43.404a.091.091 0 01-.039-.008.088.088 0 01-.032-.024l-4.735-5.46a.09.09 0 01-.023-.07.098.098 0 01.032-.063.095.095 0 01.069-.023.092.092 0 01.064.032l4.735 5.46c.012.014.019.03.022.049a.087.087 0 01-.008.052.09.09 0 01-.034.04.094.094 0 01-.051.015zm0 3.151a.09.09 0 01-.052-.016.092.092 0 01-.04-.097.09.09 0 01.025-.047l2.691-2.69a.098.098 0 01.03-.021.096.096 0 01.072 0 .091.091 0 01.051.05.09.09 0 01.008.037.09.09 0 01-.008.036.08.08 0 01-.02.03l-2.691 2.69a.089.089 0 01-.066.028z" fill="#CCC"/><path d="M195.738 59.002a3.439 3.439 0 013.437-3.437 3.436 3.436 0 013.437 3.437" fill="#F2F2F2"/><path d="M199.175 59.002a.094.094 0 01-.066-.028.094.094 0 01-.027-.065v-1.812c0-.024.01-.048.027-.065a.094.094 0 01.132 0 .094.094 0 01.027.065v1.812c0 .025-.01.048-.027.066a.094.094 0 01-.066.027z" fill="#CCC"/><path d="M199.175 58.38a.095.095 0 01-.061-.023L198 57.4a.084.084 0 01-.032-.063.087.087 0 01.022-.068.09.09 0 01.063-.032.097.097 0 01.068.022l1.114.957a.092.092 0 01-.007.147.094.094 0 01-.053.016z" fill="#CCC"/><path d="M206.328 59.002a3.439 3.439 0 013.437-3.437 3.438 3.438 0 013.437 3.437" fill="#F2F2F2"/><path d="M209.765 59.002a.092.092 0 01-.093-.093v-1.812a.092.092 0 01.158-.066.091.091 0 01.028.066v1.812c0 .025-.01.048-.028.066a.091.091 0 01-.065.027z" fill="#CCC"/><path d="M209.765 58.38a.093.093 0 01-.061-.023l-1.115-.957a.091.091 0 01-.031-.063.092.092 0 01.022-.068.091.091 0 01.13-.01l1.115.957a.092.092 0 01.03.047.105.105 0 01-.003.056.1.1 0 01-.034.044.094.094 0 01-.053.016z" fill="#CCC"/><path d="M104.599 27.881c2.258-3.232 4.994-12.733 1.759-14.993-3.234-2.26-11.214 3.579-13.472 6.81a7.144 7.144 0 0011.713 8.183z" fill="#F2F2F2"/><path d="M89.682 36.758a.081.081 0 01-.02-.113l9.551-13.672a.081.081 0 11.134.094l-9.55 13.671a.082.082 0 01-.115.02z" fill="#CCC"/><path d="M97.496 25.575a.083.083 0 01-.035-.059l-.654-6.237a.081.081 0 01.132-.072.081.081 0 01.03.055l.655 6.237a.082.082 0 01-.128.076zm-1.566 2.241a.082.082 0 01-.034-.084.081.081 0 01.066-.063l3.25-.577a.08.08 0 01.062.013.082.082 0 01.033.085.081.081 0 01-.066.063l-3.25.577a.082.082 0 01-.062-.014z" fill="#CCC"/><path d="M83.401 32.238a2.982 2.982 0 014.89 3.416" fill="#F2F2F2"/><path d="M85.846 33.947a.08.08 0 01-.02-.113l.9-1.288a.08.08 0 01.112-.02.08.08 0 01.02.112l-.9 1.288a.08.08 0 01-.112.02z" fill="#CCC"/><path d="M86.155 33.504a.08.08 0 01-.031-.046l-.318-1.235a.082.082 0 01.009-.061.081.081 0 01.08-.039.08.08 0 01.067.06l.318 1.235a.081.081 0 01-.032.086.08.08 0 01-.093 0z" fill="#CCC"/><path d="M90.934 37.501a2.982 2.982 0 114.89 3.416" fill="#F2F2F2"/><path d="M93.38 39.209a.08.08 0 01-.02-.112l.9-1.289a.081.081 0 01.112-.02.081.081 0 01.02.113l-.9 1.288a.08.08 0 01-.113.02z" fill="#CCC"/><path d="M93.689 38.766a.08.08 0 01-.032-.046l-.318-1.234a.08.08 0 01.12-.09.08.08 0 01.036.05l.318 1.234a.08.08 0 01-.079.1.081.081 0 01-.045-.014z" fill="#CCC"/><path d="M150.927 98.385a544.684 544.684 0 015.413 5.041 65.408 65.408 0 01-3.597.095c-8.296 0-12.506-1.362-16.574-2.68-3.863-1.25-7.511-2.43-15.002-2.43-7.493 0-11.142 1.18-15.002 2.43-4.07 1.318-8.28 2.68-16.576 2.68-8.299 0-12.507-1.362-16.576-2.68-3.774-1.222-7.343-2.376-14.492-2.427-.168-.003-.337-.003-.51-.003V93.3c.17 0 .342 0 .51.003 7.961.053 12.08 1.387 16.065 2.675 3.863 1.252 7.512 2.432 15.003 2.432 7.49 0 11.139-1.18 15.002-2.432 4.07-1.316 8.278-2.678 16.576-2.678 8.296 0 12.504 1.362 16.574 2.678 3.227 1.045 6.305 2.041 11.599 2.34.508.03 1.035.051 1.587.066zm64.975.025v5.111c-8.298 0-12.506-1.362-16.576-2.68-3.863-1.25-7.511-2.43-15.002-2.43-7.494 0-11.142 1.18-15.005 2.43-.209.069-.422.135-.634.204-.362.118-.73.235-1.103.35a487 487 0 00-4.247-4.11c.396-.098.78-.2 1.158-.305 1.126-.312 2.182-.654 3.255-1.001 4.07-1.316 8.278-2.678 16.576-2.678s12.506 1.362 16.576 2.678c3.863 1.252 7.511 2.432 15.002 2.432z" fill="#F78065"/><path d="M102.994 59.114A555.135 555.135 0 0058.271 29.76l-.772-.455V60.04h46.765l-1.27-.925zm-44.473-.097V31.095a553.507 553.507 0 0142.6 27.922h-42.6zm116.856 63.262a552.236 552.236 0 00-24.451-23.894 547.304 547.304 0 00-34.335-29.041l-.138-.107H57.499v53.908H176.21l-.833-.866zm-116.856-.156V70.259h57.582a546.31 546.31 0 0138.809 33.229 547.881 547.881 0 0118.893 18.635H58.521zm116.856.156a552.236 552.236 0 00-24.451-23.894 547.304 547.304 0 00-34.335-29.041l-.138-.107H57.499v53.908H176.21l-.833-.866zm-116.856-.156V70.259h57.582a546.31 546.31 0 0138.809 33.229 547.881 547.881 0 0118.893 18.635H58.521zm44.473-63.009A555.135 555.135 0 0058.271 29.76l-.772-.455V60.04h46.765l-1.27-.925zm-44.473-.097V31.095a553.507 553.507 0 0142.6 27.922h-42.6zm44.473.097A555.135 555.135 0 0058.271 29.76l-.772-.455V60.04h46.765l-1.27-.925zm-44.473-.097V31.095a553.507 553.507 0 0142.6 27.922h-42.6zm116.856 63.262a552.236 552.236 0 00-24.451-23.894 547.304 547.304 0 00-34.335-29.041l-.138-.107H57.499v53.908H176.21l-.833-.866zm-116.856-.156V70.259h57.582a546.31 546.31 0 0138.809 33.229 547.881 547.881 0 0118.893 18.635H58.521zM6.917 132.342v1.022H47.28v14.819H6.917v1.022h41.385v-16.863H6.917zm50.582 26.06v10.355l1.022-.094v-9.239h157.381v-1.022H57.499zm158.403-25.038v-1.022H57.499v16.863h158.403v-1.022H58.522v-14.819h157.38zm-95.437-74.347a498.67 498.67 0 00-61.944-40.814V7.855L57.5 7.95v10.427l.787.866a497.603 497.603 0 0161.693 40.689l.138.107h95.785v-1.022h-95.437zm-73.185 0H6.917v1.022h41.385V8.803l-1.022.095v50.12zm168.622 10.22h-84.206l1.101.904a544.38 544.38 0 0134.785 31.254 575.469 575.469 0 0120.651 21.252l.842.498h26.827v-1.022H189.14a574.515 574.515 0 00-24.647-25.143 547.203 547.203 0 00-29.951-26.721h81.36v-1.022zM6.917 158.402v1.022H47.28v10.281l1.022-.094v-11.209H6.917zm0-89.165v1.022H47.28v51.864H6.917v1.022h41.385V69.237H6.917zm96.077-10.123A555.135 555.135 0 0058.271 29.76l-.772-.455V60.04h46.765l-1.27-.925zm-44.473-.097V31.095a553.507 553.507 0 0142.6 27.922h-42.6zm116.856 63.262a552.236 552.236 0 00-24.451-23.894 547.304 547.304 0 00-34.335-29.041l-.138-.107H57.499v53.908H176.21l-.833-.866zm-116.856-.156V70.259h57.582a546.31 546.31 0 0138.809 33.229 547.881 547.881 0 0118.893 18.635H58.521zm44.473-63.009A555.135 555.135 0 0058.271 29.76l-.772-.455V60.04h46.765l-1.27-.925zm-44.473-.097V31.095a553.507 553.507 0 0142.6 27.922h-42.6zm116.856 63.262a552.236 552.236 0 00-24.451-23.894 547.304 547.304 0 00-34.335-29.041l-.138-.107H57.499v53.908H176.21l-.833-.866zm-116.856-.156V70.259h57.582a546.31 546.31 0 0138.809 33.229 547.881 547.881 0 0118.893 18.635H58.521z" fill="#3F3D56"/><path d="M129.723 93.867c0-4.5 3.648-15.177 8.147-15.177 4.5 0 8.147 10.677 8.147 15.177a8.147 8.147 0 11-16.294 0z" fill="#F2F2F2"/><path d="M137.87 113.688a.07.07 0 01-.025-.005.071.071 0 01-.022-.015.08.08 0 01-.015-.021.08.08 0 01-.005-.026v-28.09c0-.017.007-.034.02-.046a.065.065 0 01.047-.02c.018 0 .035.007.048.02.012.012.019.03.019.047v28.089a.08.08 0 01-.005.026.06.06 0 01-.014.021.107.107 0 01-.022.015.075.075 0 01-.026.005z" fill="#3F3D56"/><path d="M137.87 90.955a.066.066 0 01-.047-.02l-3.225-3.225a.063.063 0 01-.014-.021.057.057 0 01-.005-.026.06.06 0 01.005-.026.063.063 0 01.036-.036.067.067 0 01.073.015l3.225 3.224c.009.01.015.022.018.035a.064.064 0 01-.004.038.065.065 0 01-.062.042zm0 5.582a.067.067 0 01-.062-.041.064.064 0 01-.003-.039.059.059 0 01.018-.034l5.4-5.4a.067.067 0 01.073-.015.065.065 0 01.036.036.057.057 0 01.005.026.057.057 0 01-.005.026.063.063 0 01-.014.021l-5.4 5.4a.067.067 0 01-.048.02z" fill="#3F3D56"/><path d="M175.405 70.873c0-4.5 3.647-15.177 8.147-15.177s8.147 10.677 8.147 15.177a8.145 8.145 0 01-8.147 8.142 8.147 8.147 0 01-8.147-8.142z" fill="#F78065"/><path d="M183.552 90.694a.069.069 0 01-.048-.02.063.063 0 01-.014-.022.074.074 0 01-.005-.025V62.538c0-.018.007-.035.019-.047a.069.069 0 01.048-.02c.018 0 .035.007.047.02.013.012.02.03.02.047v28.089a.074.074 0 01-.005.026.086.086 0 01-.015.021.058.058 0 01-.022.015.064.064 0 01-.025.005z" fill="#3F3D56"/><path d="M183.552 67.96a.062.062 0 01-.047-.02l-3.225-3.224a.066.066 0 010-.095.065.065 0 01.047-.019c.018 0 .035.007.048.02l3.224 3.224c.01.01.016.022.019.035a.067.067 0 01-.066.08zm0 5.583a.067.067 0 01-.066-.08.073.073 0 01.018-.034l5.401-5.4a.065.065 0 01.047-.02c.018 0 .035.007.047.02.013.012.02.03.02.047a.069.069 0 01-.019.047l-5.401 5.4a.059.059 0 01-.022.015.062.062 0 01-.025.005z" fill="#3F3D56"/><path d="M75.379 73.172c0-4.5 3.647-15.177 8.147-15.177s8.147 10.677 8.147 15.177a8.147 8.147 0 01-16.294 0z" fill="#F78065"/><path d="M83.526 92.993a.066.066 0 01-.062-.041.066.066 0 01-.005-.026V64.837a.067.067 0 01.114-.047c.013.012.02.03.02.047v28.09a.068.068 0 01-.02.047.066.066 0 01-.047.02z" fill="#3F3D56"/><path d="M83.526 70.26a.067.067 0 01-.048-.02l-3.224-3.224a.068.068 0 01-.015-.073.066.066 0 01.036-.036.066.066 0 01.052 0 .066.066 0 01.022.014l3.224 3.225a.068.068 0 01.015.073.067.067 0 01-.062.041zm0 5.583a.066.066 0 01-.062-.042.067.067 0 01.015-.073l5.4-5.4a.067.067 0 01.095.095l-5.4 5.4a.068.068 0 01-.048.02z" fill="#3F3D56"/><path d="M150.546 50.725a23.398 23.398 0 01-22.947-27.96 23.398 23.398 0 0131.9-17.052 23.398 23.398 0 0114.443 21.616 23.423 23.423 0 01-23.396 23.396zm0-46.479a23.084 23.084 0 00-16.322 39.404 23.081 23.081 0 0039.404-16.321 23.11 23.11 0 00-23.082-23.083z" fill="#CCC"/><path d="M150.546 25.601a.156.156 0 01-.157-.157V4.09c0-.041.016-.081.046-.11a.156.156 0 01.111-.047c.041 0 .081.017.111.046.029.03.046.07.046.111v21.355a.159.159 0 01-.046.111.16.16 0 01-.111.046zm23.239 1.885H152.43a.155.155 0 01-.111-.046.159.159 0 01-.046-.111c0-.042.017-.082.046-.111a.155.155 0 01.111-.046h21.355c.042 0 .082.016.111.046a.155.155 0 010 .222.155.155 0 01-.111.046zm-25.124 0h-21.345a.159.159 0 01-.111-.046.159.159 0 01-.046-.111.157.157 0 01.157-.157h21.345c.042 0 .082.016.111.046a.155.155 0 010 .222.155.155 0 01-.111.046zm1.885 23.239a.156.156 0 01-.157-.157V29.213a.156.156 0 01.268-.111.16.16 0 01.046.11v21.356a.16.16 0 01-.046.111.16.16 0 01-.111.046zm1.384-24.515a.156.156 0 01-.154-.188.157.157 0 01.043-.08l15.034-15.034a.157.157 0 01.268.11.159.159 0 01-.046.112l-15.034 15.034a.152.152 0 01-.111.046zm-2.769 0a.158.158 0 01-.111-.046L134.016 11.13a.158.158 0 01.001-.222.155.155 0 01.221 0l15.034 15.034a.157.157 0 01-.111.268zm17.803 17.585a.155.155 0 01-.111-.046l-15.034-15.033a.159.159 0 01-.046-.111.162.162 0 01.046-.111.16.16 0 01.111-.046c.042 0 .082.016.111.046l15.034 15.033a.157.157 0 01-.111.268zm-32.837 0a.156.156 0 01-.154-.187.156.156 0 01.043-.08l15.034-15.034a.157.157 0 01.222 0 .155.155 0 010 .222L134.238 43.75a.152.152 0 01-.111.045z" fill="#CCC"/><path d="M150.546 43.423a16.094 16.094 0 1116.095-16.094 16.116 16.116 0 01-16.095 16.094zm0-31.875a15.786 15.786 0 00-14.58 9.742 15.783 15.783 0 0011.501 21.516 15.782 15.782 0 0018.859-15.477 15.797 15.797 0 00-15.78-15.78z" fill="#CCC"/><path d="M150.546 29.213a1.884 1.884 0 100-3.769 1.884 1.884 0 000 3.769z" fill="#3F3D56"/><path d="M143.251 59.156l-1.656.048 8.08-32.613 1.502.459-7.926 32.106z" fill="#3F3D56"/><path d="M157.841 59.156l1.655.048-8.08-32.613-1.502.459 7.927 32.106z" fill="#3F3D56"/><path d="M153.058 8.8h-5.182v2.826h5.182V8.8z" fill="#CCC"/><path d="M150.232 9.428h-2.042v2.198h2.042V9.428zm2.512 0h-2.041v2.198h2.041V9.428z" fill="#fff"/><path d="M150.467 14.688a2.989 2.989 0 01-2.983-2.983v-.079a.704.704 0 01.706-.706h4.554a.706.706 0 01.707.706v.079a2.989 2.989 0 01-2.984 2.983z" fill="#CCC"/><path d="M152.864 9.507h-4.794a.393.393 0 01-.351-.569l.942-1.884a.396.396 0 01.351-.217h2.91a.388.388 0 01.351.217l.942 1.884a.392.392 0 01-.351.569z" fill="#F78065"/><path d="M167.033 15.08h-5.182v2.827h5.182v-2.826z" fill="#CCC"/><path d="M164.207 15.709h-2.042v2.198h2.042V15.71zm2.512 0h-2.041v2.198h2.041V15.71z" fill="#fff"/><path d="M164.442 20.97a2.985 2.985 0 01-2.983-2.984v-.079a.704.704 0 01.706-.706h4.554a.706.706 0 01.707.706v.079a2.989 2.989 0 01-2.984 2.983z" fill="#CCC"/><path d="M162.987 13.275a.232.232 0 00-.21.13l-.942 1.885a.234.234 0 00.096.31c.035.02.074.03.114.03h4.794a.236.236 0 00.2-.111.239.239 0 00.011-.23l-.943-1.884a.231.231 0 00-.21-.13h-2.91z" fill="#F78065"/><path d="M172.529 29.213h-5.182v2.826h5.182v-2.826z" fill="#CCC"/><path d="M169.702 29.841h-2.041v2.198h2.041v-2.198zm2.513 0h-2.041v2.198h2.041v-2.198z" fill="#fff"/><path d="M169.938 35.101a2.989 2.989 0 01-2.983-2.983v-.079a.704.704 0 01.706-.706h4.554a.706.706 0 01.706.706v.079a2.983 2.983 0 01-2.983 2.983z" fill="#CCC"/><path d="M172.335 29.92h-4.794a.393.393 0 01-.351-.569l.942-1.884a.396.396 0 01.351-.217h2.91a.387.387 0 01.351.217l.942 1.884a.392.392 0 01-.351.569z" fill="#F78065"/><path d="M166.719 42.403h-5.182v2.826h5.182v-2.826z" fill="#CCC"/><path d="M163.893 43.03h-2.042v2.2h2.042v-2.2zm2.512 0h-2.041v2.2h2.041v-2.2z" fill="#fff"/><path d="M164.128 48.291a2.985 2.985 0 01-2.983-2.983v-.079a.704.704 0 01.706-.706h4.554a.706.706 0 01.707.706v.079a2.989 2.989 0 01-2.984 2.983z" fill="#CCC"/><path d="M166.525 43.11h-4.794a.396.396 0 01-.334-.187.394.394 0 01-.017-.382l.942-1.884a.396.396 0 01.352-.217h2.909a.387.387 0 01.351.217l.942 1.884a.392.392 0 01-.351.568z" fill="#F78065"/><path d="M134.058 17.907h5.182v-2.826h-5.182v2.826z" fill="#CCC"/><path d="M136.885 17.907h2.041V15.71h-2.041v2.198zm-2.513 0h2.042V15.71h-2.042v2.198z" fill="#fff"/><path d="M136.649 20.97a2.985 2.985 0 01-2.983-2.984v-.079a.704.704 0 01.706-.706h4.554a.706.706 0 01.707.706v.079a2.989 2.989 0 01-2.984 2.983z" fill="#CCC"/><path d="M139.046 15.787h-4.794a.397.397 0 01-.334-.186.394.394 0 01-.017-.382l.942-1.884a.397.397 0 01.352-.217h2.909a.388.388 0 01.351.217l.942 1.884a.392.392 0 01-.351.568z" fill="#F78065"/><path d="M128.563 32.04h5.181v-2.827h-5.181v2.826z" fill="#CCC"/><path d="M131.389 32.04h2.041v-2.2h-2.041v2.198zm-2.512 0h2.041v-2.2h-2.041v2.198z" fill="#fff"/><path d="M131.153 35.101a2.985 2.985 0 01-2.983-2.983v-.079a.708.708 0 01.707-.706h4.553a.708.708 0 01.707.706v.079a2.989 2.989 0 01-2.984 2.983z" fill="#CCC"/><path d="M133.55 29.92h-4.793a.397.397 0 01-.334-.187.385.385 0 01-.018-.382l.943-1.884a.386.386 0 01.351-.217h2.909a.39.39 0 01.351.217l.942 1.884a.392.392 0 01-.351.569z" fill="#F78065"/><path d="M134.372 45.23h5.182v-2.827h-5.182v2.826z" fill="#CCC"/><path d="M137.199 45.23h2.041v-2.2h-2.041v2.2zm-2.512 0h2.041v-2.2h-2.041v2.2z" fill="#fff"/><path d="M136.963 48.291a2.985 2.985 0 01-2.983-2.983v-.079a.704.704 0 01.706-.706h4.554a.706.706 0 01.707.706v.079a2.989 2.989 0 01-2.984 2.983z" fill="#CCC"/><path d="M139.36 43.11h-4.794a.393.393 0 01-.351-.569l.942-1.884a.396.396 0 01.352-.217h2.909a.387.387 0 01.351.217l.942 1.884a.392.392 0 01-.351.568z" fill="#F78065"/><path d="M153.058 48.37h-5.182v2.826h5.182V48.37z" fill="#CCC"/><path d="M150.232 48.998h-2.042v2.198h2.042v-2.198zm2.512 0h-2.041v2.198h2.041v-2.198z" fill="#fff"/><path d="M148.19 50.647a.55.55 0 00-.549.549v.079a2.812 2.812 0 00.827 2 2.82 2.82 0 003.082.614 2.83 2.83 0 001.744-2.614v-.079a.55.55 0 00-.55-.55h-4.554z" fill="#CCC"/><path d="M149.013 46.564a.232.232 0 00-.211.13l-.942 1.884a.233.233 0 00.096.311.23.23 0 00.115.03h4.793a.236.236 0 00.2-.111.218.218 0 00.035-.114.232.232 0 00-.024-.116l-.942-1.884a.232.232 0 00-.211-.13h-2.909z" fill="#F78065"/><path d="M81.338 87.556a.177.177 0 100-.355h-1.683v-.708h1.683a.177.177 0 000-.355H66.987a.177.177 0 000 .355h1.683v.709h-1.683a.177.177 0 100 .354h1.683v.709h-1.683a.177.177 0 000 .354h1.683v.709h-1.506a.354.354 0 100 .708h1.434a.266.266 0 00-.017.089v2.48a.265.265 0 10.532 0v-2.48c0-.03-.006-.06-.016-.089h10.131a.266.266 0 00-.016.089v2.48a.266.266 0 10.531 0v-2.48a.25.25 0 00-.016-.089h1.434a.354.354 0 100-.708h-1.506v-.71h1.683a.177.177 0 000-.353h-1.683v-.71h1.683zm-12.314-1.063h10.277v.709H69.024v-.71zm10.277 2.835H69.024v-.71h10.277v.71zm0-1.064H69.024v-.708h10.277v.709zm57.403 20.497a.173.173 0 00.125-.052.173.173 0 00.052-.125.177.177 0 00-.177-.177h-1.683v-.709h1.683a.173.173 0 00.125-.052.173.173 0 00.052-.125.177.177 0 00-.177-.177h-14.351a.176.176 0 00-.177.177.176.176 0 00.177.177h1.683v.709h-1.683a.176.176 0 00-.177.177.176.176 0 00.177.177h1.683v.709h-1.683a.176.176 0 00-.177.177.18.18 0 00.051.126.18.18 0 00.126.051h1.683v.709h-1.506a.356.356 0 000 .709h1.434a.264.264 0 00-.017.088v2.481a.266.266 0 00.164.246.255.255 0 00.204 0 .251.251 0 00.086-.058.251.251 0 00.058-.086.273.273 0 00.02-.102v-2.481c0-.03-.006-.06-.016-.088h10.131a.263.263 0 00-.016.088v2.481a.267.267 0 00.454.188.27.27 0 00.077-.188v-2.481a.24.24 0 00-.016-.088h1.434a.35.35 0 00.25-.104.352.352 0 00-.25-.605h-1.506v-.709h1.683a.176.176 0 00.125-.302.177.177 0 00-.125-.052h-1.683v-.709h1.683zm-12.314-1.063h10.277v.709H124.39v-.709zm10.277 2.835H124.39v-.709h10.277v.709zm0-1.063H124.39v-.709h10.277v.709zm46.697-23.958a.176.176 0 00.177-.177.174.174 0 00-.052-.125.176.176 0 00-.125-.052h-1.683v-.71h1.683a.176.176 0 00.177-.176.176.176 0 00-.177-.177h-14.351a.178.178 0 00-.126.303.18.18 0 00.126.05h1.683v.71h-1.683a.178.178 0 00-.126.302.18.18 0 00.126.052h1.683v.709h-1.683a.178.178 0 00-.126.302.18.18 0 00.126.052h1.683v.709h-1.506a.354.354 0 000 .708h1.433a.296.296 0 00-.016.089v2.48a.265.265 0 00.454.188.265.265 0 00.078-.188v-2.48a.268.268 0 00-.017-.089h10.132a.267.267 0 00-.016.089v2.48a.265.265 0 10.531 0v-2.48a.25.25 0 00-.016-.089h1.434a.356.356 0 00.328-.218.352.352 0 00-.077-.387.353.353 0 00-.251-.103h-1.506v-.709h1.683a.176.176 0 00.177-.177.178.178 0 00-.177-.177h-1.683v-.71h1.683zm-12.314-1.063h10.276v.709H169.05v-.71zm10.276 2.835H169.05v-.709h10.276v.709zm0-1.063H169.05v-.71h10.276v.71z" fill="#3F3D56"/><path d="M114.103 130.061c0-4.544-3.686-15.326-8.233-15.326-4.547 0-8.233 10.782-8.233 15.326a8.23 8.23 0 0016.465 0z" fill="#F2F2F2"/><path d="M105.87 148.292a.094.094 0 01-.094-.094v-19.219c0-.012.002-.025.007-.036a.087.087 0 01.051-.051.086.086 0 01.072 0 .079.079 0 01.031.02.079.079 0 01.02.031.089.089 0 01.007.036v19.219c0 .025-.01.049-.027.067a.098.098 0 01-.067.027z" fill="#CCC"/><path d="M105.87 132.57a.09.09 0 01-.039-.009.082.082 0 01-.032-.024l-4.735-5.46a.095.095 0 01-.022-.068.097.097 0 01.032-.065.093.093 0 01.068-.022.091.091 0 01.064.031l4.735 5.461a.097.097 0 01.015.101.104.104 0 01-.035.04.092.092 0 01-.051.015zm0 3.151a.089.089 0 01-.052-.016.09.09 0 01-.04-.096.102.102 0 01.026-.049l2.69-2.69a.095.095 0 01.067-.028.09.09 0 01.066.028.092.092 0 010 .133l-2.69 2.69a.095.095 0 01-.067.028z" fill="#CCC"/><path d="M35.578 40.895c0-4.543-3.686-15.326-8.233-15.326-4.546 0-8.232 10.783-8.232 15.326a8.233 8.233 0 0016.465 0z" fill="#3F3D56"/><path d="M27.346 59.127a.094.094 0 01-.095-.095V39.813a.094.094 0 01.161-.066.094.094 0 01.028.066v19.22a.095.095 0 01-.028.066.094.094 0 01-.066.028z" fill="#CCC"/><path d="M27.346 43.404a.095.095 0 01-.072-.032l-4.735-5.46a.094.094 0 01.143-.124l4.735 5.46a.094.094 0 01-.071.156zm0 3.151a.094.094 0 01-.093-.112.094.094 0 01.026-.048l2.69-2.69a.092.092 0 01.067-.028.093.093 0 01.067.027.092.092 0 01.027.067.093.093 0 01-.027.066l-2.69 2.69a.095.095 0 01-.067.028z" fill="#CCC"/><path d="M18.428 59.002a3.437 3.437 0 116.874 0" fill="#F2F2F2"/><path d="M21.866 59.002a.093.093 0 01-.093-.093v-1.812a.093.093 0 01.186 0v1.812a.093.093 0 01-.093.093z" fill="#CCC"/><path d="M21.866 58.38a.093.093 0 01-.061-.023L20.69 57.4a.093.093 0 01.121-.14l1.115.956a.094.094 0 01.027.103.093.093 0 01-.087.06z" fill="#CCC"/><path d="M29.018 59.002a3.437 3.437 0 016.874 0" fill="#F2F2F2"/><path d="M32.455 59.002a.092.092 0 01-.093-.093v-1.812a.092.092 0 01.093-.093.093.093 0 01.093.093v1.812a.093.093 0 01-.093.093z" fill="#CCC"/><path d="M32.455 58.38a.092.092 0 01-.06-.023L31.28 57.4a.093.093 0 01.121-.14l1.115.956a.093.093 0 01-.008.147.093.093 0 01-.053.016z" fill="#CCC"/><path d="M208.544 129.806c0-4.544-3.686-15.326-8.232-15.326-4.547 0-8.233 10.782-8.233 15.326a8.231 8.231 0 0014.052 5.818 8.231 8.231 0 002.413-5.818z" fill="#F78065"/><path d="M200.312 148.037a.095.095 0 01-.094-.094v-19.22a.077.077 0 01.007-.036.075.075 0 01.02-.03.095.095 0 01.103-.021.09.09 0 01.03.021.09.09 0 01.028.066v19.22c0 .025-.01.048-.028.066a.09.09 0 01-.066.028z" fill="#CCC"/><path d="M200.312 132.314a.1.1 0 01-.039-.008.087.087 0 01-.032-.024l-4.735-5.461a.09.09 0 01-.023-.068.097.097 0 01.032-.064.096.096 0 01.068-.023.097.097 0 01.065.032l4.735 5.46a.092.092 0 01.014.101.084.084 0 01-.034.04.095.095 0 01-.051.015zm0 3.152a.1.1 0 01-.053-.016.1.1 0 01-.04-.097.098.098 0 01.026-.048l2.691-2.691a.092.092 0 01.066-.027c.013 0 .025.002.036.007a.11.11 0 01.031.02.11.11 0 01.02.031.089.089 0 01.007.036.089.089 0 01-.007.036.105.105 0 01-.02.03l-2.691 2.691a.075.075 0 01-.03.02.094.094 0 01-.036.008z" fill="#CCC"/><path d="M79.31 131.246h-1.596a.449.449 0 01-.448-.449v-2.094a.449.449 0 01.448-.448h1.596a.449.449 0 01.449.448v2.094a.451.451 0 01-.45.449zm13.462 17.052h-8.177a.847.847 0 01-.847-.847v-15.856a.85.85 0 01.847-.847h8.177a.847.847 0 01.848.847v15.856a.848.848 0 01-.848.847z" fill="#3F3D56"/><path d="M87.886 148.298h-14.16a.847.847 0 01-.848-.847v-15.856a.85.85 0 01.848-.847h14.16a.846.846 0 01.848.847v15.856a.848.848 0 01-.848.847z" fill="#F78065"/><path d="M77.814 131.246h-1.595a.448.448 0 01-.45-.449v-2.094a.448.448 0 01.45-.448h1.595a.449.449 0 01.449.448v2.094a.45.45 0 01-.449.449z" fill="#F78065"/><path d="M79.908 138.576h-1.895a.251.251 0 01-.25-.25v-2.892a.25.25 0 01.25-.249h1.895a.25.25 0 01.25.249v2.892a.251.251 0 01-.25.25zm3.69 0h-1.895a.251.251 0 01-.25-.25v-2.892a.25.25 0 01.25-.249h1.895a.25.25 0 01.25.249v2.892a.251.251 0 01-.25.25zm-3.69 5.285h-1.895a.25.25 0 01-.25-.249v-2.892a.251.251 0 01.25-.25h1.895a.251.251 0 01.25.25v2.892a.25.25 0 01-.25.249zm3.69 0h-1.895a.25.25 0 01-.25-.249v-2.892a.251.251 0 01.25-.25h1.895a.251.251 0 01.25.25v2.892a.25.25 0 01-.25.249z" fill="#fff"/><path d="M22.553 81.545H20.67a.53.53 0 01-.53-.53v-4.35a.53.53 0 01.53-.53h1.882a.53.53 0 01.529.53v4.35a.53.53 0 01-.53.53z" fill="#3F3D56"/><path d="M29.963 122.123h-9.645a1.001 1.001 0 01-1-1v-38.93a1 1 0 011-1h9.645a1 1 0 011 1v38.93a1.003 1.003 0 01-1 1z" fill="#3F3D56"/><path d="M24.2 122.123h-9.645a1.001 1.001 0 01-1-1v-38.93a1 1 0 011-1H24.2a1 1 0 011 1v38.93a1.003 1.003 0 01-1 1z" fill="#F78065"/><path d="M20.789 81.545h-1.882a.53.53 0 01-.53-.53v-4.35a.53.53 0 01.53-.53h1.882a.53.53 0 01.529.53v4.35a.53.53 0 01-.53.53z" fill="#F78065"/><path d="M18.319 90.014h-2.235a.294.294 0 01-.294-.294v-3.411a.295.295 0 01.294-.294h2.235a.295.295 0 01.294.294v3.41a.294.294 0 01-.294.295zm4.351 0h-2.234a.294.294 0 01-.294-.294v-3.411a.295.295 0 01.294-.294h2.234a.295.295 0 01.294.294v3.41a.294.294 0 01-.294.295zm-4.351 6.233h-2.235a.294.294 0 01-.294-.294v-3.41a.295.295 0 01.294-.295h2.235a.295.295 0 01.294.294v3.411a.294.294 0 01-.294.294zm4.351 0h-2.234a.294.294 0 01-.294-.294v-3.41a.295.295 0 01.294-.295h2.234a.295.295 0 01.294.294v3.411a.294.294 0 01-.294.294zm-4.351 6.234h-2.235a.294.294 0 01-.294-.294v-3.411a.295.295 0 01.294-.294h2.235a.295.295 0 01.294.294v3.411a.295.295 0 01-.294.294zm4.351 0h-2.234a.294.294 0 01-.294-.294v-3.411a.295.295 0 01.294-.294h2.234a.295.295 0 01.294.294v3.411a.295.295 0 01-.294.294zm-4.351 6.234h-2.235a.291.291 0 01-.208-.087.292.292 0 01-.086-.207v-3.411a.295.295 0 01.294-.294h2.235a.295.295 0 01.294.294v3.411a.292.292 0 01-.087.207.291.291 0 01-.207.087zm4.351 0h-2.234a.291.291 0 01-.208-.087.292.292 0 01-.086-.207v-3.411a.295.295 0 01.294-.294h2.234a.294.294 0 01.294.294v3.411a.292.292 0 01-.086.207.291.291 0 01-.208.087zm-4.351 6.233h-2.235a.294.294 0 01-.294-.294v-3.411c0-.078.03-.152.086-.207a.291.291 0 01.208-.087h2.235c.078 0 .152.031.207.087a.292.292 0 01.087.207v3.411a.295.295 0 01-.294.294zm4.351 0h-2.234a.294.294 0 01-.294-.294v-3.411c0-.078.03-.152.086-.207a.291.291 0 01.208-.087h2.234c.078 0 .153.031.208.087a.292.292 0 01.086.207v3.411a.295.295 0 01-.294.294z" fill="#fff"/><path d="M172.23 131.3h-1.595a.449.449 0 01-.449-.449v-2.094a.449.449 0 01.449-.449h1.595a.449.449 0 01.449.449v2.094a.449.449 0 01-.449.449zm13.463 17.052h-8.177a.847.847 0 01-.848-.848v-15.855a.847.847 0 01.848-.848h8.177a.849.849 0 01.847.848v15.855a.846.846 0 01-.847.848z" fill="#3F3D56"/><path d="M180.806 148.352h-14.16a.847.847 0 01-.848-.848v-15.855a.851.851 0 01.848-.848h14.16a.847.847 0 01.848.848v15.855a.847.847 0 01-.848.848z" fill="#F78065"/><path d="M170.734 131.3h-1.595a.449.449 0 01-.449-.449v-2.094a.449.449 0 01.449-.449h1.595a.451.451 0 01.449.449v2.094a.448.448 0 01-.449.449z" fill="#F78065"/><path d="M172.829 138.629h-1.895a.248.248 0 01-.249-.249v-2.892a.248.248 0 01.249-.249h1.895a.248.248 0 01.249.249v2.892a.248.248 0 01-.249.249zm3.689 0h-1.894a.249.249 0 01-.25-.249v-2.892a.249.249 0 01.25-.249h1.894c.066 0 .13.026.176.073.047.047.073.11.074.176v2.892a.253.253 0 01-.074.176.247.247 0 01-.176.073zm-3.689 5.285h-1.895a.247.247 0 01-.176-.073.247.247 0 01-.073-.176v-2.892a.248.248 0 01.249-.249h1.895a.248.248 0 01.249.249v2.892a.25.25 0 01-.249.249zm3.689 0h-1.894a.249.249 0 01-.25-.249v-2.892a.249.249 0 01.25-.249h1.894c.066 0 .13.026.176.073.047.047.073.11.074.176v2.892a.252.252 0 01-.25.249z" fill="#fff"/></g><defs><clipPath id="clip0"><path fill="#fff" d="M0 0h222.82v180H0z"/></clipPath></defs></svg>