<svg width="253" height="180" fill="none" xmlns="http://www.w3.org/2000/svg"><g clip-path="url(#clip0)"><path d="M251.5 167.271a.296.296 0 01-.156.166.298.298 0 01-.227.009L14.659 79.459a.297.297 0 01.208-.558l236.457 87.987a.3.3 0 01.176.383z" fill="#F2F2F2"/><path d="M125.54 0H69.196a16.69 16.69 0 00-16.671 16.671v5.093a.774.774 0 00-.98.756v3.916a.774.774 0 00.98.756v5.93a.775.775 0 00-.98.755v9.791a.773.773 0 00.98.756v3.58a.774.774 0 00-.98.756v9.79a.773.773 0 00.98.756v103.396a16.691 16.691 0 0016.67 16.671h56.345a16.691 16.691 0 0016.671-16.671V16.672A16.691 16.691 0 00125.54 0zm13.146 162.702a13.157 13.157 0 01-13.146 13.146H69.196a13.16 13.16 0 01-13.146-13.146V16.672A13.162 13.162 0 0169.196 3.524h56.344a13.162 13.162 0 0113.146 13.146v146.031z" fill="#3F3D56"/><path d="M125.54 177.806H69.196a15.118 15.118 0 01-15.105-15.104V16.671A15.122 15.122 0 0169.196 1.567h56.344a15.123 15.123 0 0115.105 15.104v146.031a15.125 15.125 0 01-15.105 15.104z" fill="#E6E6E6"/><path d="M126.933 175.456h-59.13a10.198 10.198 0 01-10.187-10.187V14.104A10.2 10.2 0 0167.804 3.916h7.71A1.686 1.686 0 0177.199 5.6a4.98 4.98 0 004.975 4.974h29.607a4.981 4.981 0 004.974-4.974 1.687 1.687 0 011.684-1.684h8.495a10.2 10.2 0 0110.187 10.188v151.165a10.198 10.198 0 01-10.187 10.187z" fill="#fff"/><path d="M99.914 7.343h-7.05a.783.783 0 010-1.566h7.05a.785.785 0 01.783.783.787.787 0 01-.783.783zm4.895-.195a.392.392 0 10.001-.783.392.392 0 00-.001.783z" fill="#fff"/><path d="M139.025 34.512H55.633v.893h83.392v-.893zm0 17.852H55.633v.892h83.392v-.892zm0 36.892H55.633v.893h83.392v-.893zm0 36.893H55.633v.892h83.392v-.892zm0 28.859H55.633v.893h83.392v-.893z" fill="#E6E6E6"/><path d="M116.194 34.959h-.892v54.743h.892V34.96zM74.448 89.686h-.893v65.769h.892V89.686z" fill="#E6E6E6"/><path d="M137.12 107.727H74.001v.893h63.119v-.893zm-20.83 47.728h-.892v20.001h.892v-20.001zm-.691-84.28H57.467v.893H115.6v-.893zM69.608 3.352l-.824.345L81.94 35.131l.823-.345L69.608 3.352zm40.514 7.222h-.893V34.96h.893V10.574z" fill="#E6E6E6"/><path d="M133.138 48.496c0 7.997-12.365 26.633-15.979 31.908a1.187 1.187 0 01-1.961 0c-3.613-5.275-15.978-23.91-15.978-31.908a16.96 16.96 0 0133.918 0z" fill="#F78065"/><path d="M116.179 55.934a8.628 8.628 0 100-17.256 8.628 8.628 0 000 17.256z" fill="#fff"/><path d="M115.614 89.96l-32.676 65.285.798.399 32.676-65.285-.798-.4z" fill="#E6E6E6"/><path d="M162.672 104.32a2.997 2.997 0 002.527.142 2.994 2.994 0 001.733-1.846l10.63-.183-3.121-4.56-9.616.874a3.009 3.009 0 00-2.153 5.573z" fill="#FFB8B8"/><path d="M169.053 104.187a1.218 1.218 0 01-1.219-1.274l.215-4.874a1.216 1.216 0 011.08-1.158l12.315-1.413-.413 8.123-11.917.594-.061.002z" fill="#F78065"/><path d="M184.052 171.002l-3.468 1.132-6.018-12.835 5.118-1.671 4.368 13.374z" fill="#FFB8B8"/><path d="M186.034 174.074l-11.18 3.651-.046-.141a4.579 4.579 0 012.93-5.773l6.828-2.23 1.468 4.493z" fill="#2F2E41"/><path d="M194.264 176.369h-3.647l-1.735-14.069h5.383l-.001 14.069z" fill="#FFB8B8"/><path d="M195.194 179.905l-11.761-.001v-.148a4.576 4.576 0 011.341-3.237 4.583 4.583 0 013.237-1.341h7.184l-.001 4.727zm-6.47-6.96a1.224 1.224 0 01-1.21-1.075l-4.703-39.316-6.884 11.051 8.077 20.641a1.225 1.225 0 01-.599 1.54l-6.852 3.353a1.219 1.219 0 01-1.694-.712l-7.594-22.942a9.694 9.694 0 01-.215-5.346l4.909-20.148.058-.032 11.067-6.062.064.023 13.034 4.757-1.364 25.83.991 26.81a1.214 1.214 0 01-1.144 1.262l-5.864.363a.99.99 0 01-.077.003z" fill="#2F2E41"/><path d="M181.545 127.647c-1.948 0-3.588-.555-4.615-1.965l-.033-.045.664-6.97-5.907 3.279a.686.686 0 01-.779-.08.677.677 0 01-.193-.759l7.367-19.565 4.864-15.937a6.408 6.408 0 015.164-5.116c4.334-.796 6.915.666 9.895 3.91a7.009 7.009 0 011.733 5.92l-2.819 16.114.828 14.448a1.215 1.215 0 01-.528 1.33c-2.305 1.466-9.37 5.435-15.641 5.436z" fill="#F78065"/><path d="M191.403 78.076a7.308 7.308 0 100-14.616 7.308 7.308 0 000 14.616zm1.904 44.781a2.993 2.993 0 001.211-4.424l6.267-8.589-5.519-.261-5.105 8.195a3.008 3.008 0 003.146 5.079z" fill="#FFB8B8"/><path d="M196.701 118.011a1.216 1.216 0 01-.87-.207l-4.149-2.893a1.213 1.213 0 01-.366-1.598l7.386-13.142-7.429-8.942a4.396 4.396 0 014.367-7.098 4.403 4.403 0 012.843 2.119l8.203 14.478a.687.687 0 010 .675l-9.097 16.003a1.22 1.22 0 01-.888.605z" fill="#F78065"/><path d="M188.483 69.835c-.723-.54-1.724-.455-2.581-.738a3.064 3.064 0 01-1.085-5.192c.926-.83 2.243-1.018 3.476-1.17 1.69-.208 3.396-.416 5.09-.25 1.695.165 3.401.737 4.639 1.905 1.366 1.288 2.038 3.206 2.043 5.083a11.335 11.335 0 01-1.506 5.365 4.215 4.215 0 01-1.277 1.575c-.57.376-1.374.475-1.923.069-.474-.352-.648-.967-.862-1.517-.214-.55-.58-1.136-1.164-1.22-.752-.11-1.326.655-2.044.905-1.004.35-2.119-.424-2.529-1.405-.409-.981-.302-2.091-.187-3.148" fill="#2F2E41"/><path d="M252.893 179.702a.3.3 0 01-.298.298H.298a.297.297 0 01-.21-.508.297.297 0 01.21-.087h252.297a.3.3 0 01.298.297z" fill="#CCC"/><path d="M116.179 93.421a3.868 3.868 0 100-7.736 3.868 3.868 0 000 7.736z" fill="#F78065"/><path d="M170.631 47.264c-1.615 2.153-8.708 4.672-10.746 5.362a.402.402 0 01-.49-.207.396.396 0 01-.038-.189c.093-2.15.528-9.663 2.144-11.816a5.705 5.705 0 017.99-1.14 5.708 5.708 0 011.14 7.99z" fill="#F2F2F2"/><path d="M166.306 46.422a2.904 2.904 0 100-5.807 2.904 2.904 0 000 5.807z" fill="#fff"/><path d="M157.773 56.193a1.302 1.302 0 100-2.604 1.302 1.302 0 000 2.604zM29.06 106.316c2.378 3.632 2.302 15.769 2.229 19.238a.64.64 0 01-.292.527.65.65 0 01-.599.056c-3.208-1.321-14.362-6.109-16.739-9.74a9.2 9.2 0 01.093-10.23 9.2 9.2 0 019.489-3.824 9.207 9.207 0 015.82 3.973z" fill="#F2F2F2"/><path d="M21.006 115.499a4.683 4.683 0 100-9.366 4.683 4.683 0 000 9.366z" fill="#fff"/><path d="M33.563 132.099a2.099 2.099 0 10.001-4.197 2.099 2.099 0 000 4.197z" fill="#F2F2F2"/></g><defs><clipPath id="clip0"><path fill="#fff" d="M0 0h252.893v180H0z"/></clipPath></defs></svg>